<?xml version="1.0" encoding="UTF-8" standalone="no"?>
<!-- Created with Inkscape (http://www.inkscape.org/) -->

<svg
   xmlns:dc="http://purl.org/dc/elements/1.1/"
   xmlns:cc="http://creativecommons.org/ns#"
   xmlns:rdf="http://www.w3.org/1999/02/22-rdf-syntax-ns#"
   xmlns:svg="http://www.w3.org/2000/svg"
   xmlns="http://www.w3.org/2000/svg"
   xmlns:sodipodi="http://sodipodi.sourceforge.net/DTD/sodipodi-0.dtd"
   xmlns:inkscape="http://www.inkscape.org/namespaces/inkscape"
   width="210mm"
   height="297mm"
   viewBox="0 0 744.09448819 1052.3622047"
   id="svg8337"
   version="1.1"
   inkscape:version="0.91 r13725"
   sodipodi:docname="fondogrua.svg">
  <defs
     id="defs8339">
    <clipPath
       clipPathUnits="userSpaceOnUse"
       id="clipPath1424">
      <path
         d="m 0,6333.253 1620.274,0 L 1620.274,0 0,0 0,6333.253 Z"
         id="path1426"
         inkscape:connector-curvature="0" />
    </clipPath>
    <clipPath
       clipPathUnits="userSpaceOnUse"
       id="clipPath1432">
      <path
         d="m 935.689,4279.05 611.981,0 0,-645.64 -611.981,0 0,645.64 z"
         id="path1434"
         inkscape:connector-curvature="0" />
    </clipPath>
  </defs>
  <sodipodi:namedview
     id="base"
     pagecolor="#ffffff"
     bordercolor="#666666"
     borderopacity="1.0"
     inkscape:pageopacity="0.0"
     inkscape:pageshadow="2"
     inkscape:zoom="0.35"
     inkscape:cx="-186.09674"
     inkscape:cy="520"
     inkscape:document-units="px"
     inkscape:current-layer="layer1"
     showgrid="false"
     inkscape:window-width="959"
     inkscape:window-height="744"
     inkscape:window-x="65"
     inkscape:window-y="24"
     inkscape:window-maximized="1" />
  <metadata
     id="metadata8342">
    <rdf:RDF>
      <cc:Work
         rdf:about="">
        <dc:format>image/svg+xml</dc:format>
        <dc:type
           rdf:resource="http://purl.org/dc/dcmitype/StillImage" />
        <dc:title></dc:title>
      </cc:Work>
    </rdf:RDF>
  </metadata>
  <g
     inkscape:label="Capa 1"
     inkscape:groupmode="layer"
     id="layer1">
    <g
       id="g8397"
       inkscape:export-xdpi="90"
       inkscape:export-ydpi="90">
      <g
         id="g8302"
         transform="matrix(1.25,0,0,-1.25,-741.24268,5244.1106)">
        <path
           d="m 0,3724.94 1620.274,0 0,591.876 -1620.274,0 0,-591.876 z"
           style="fill:#e9e9e9;fill-opacity:1;fill-rule:nonzero;stroke:none"
           id="path1418"
           inkscape:connector-curvature="0" />
      </g>
      <g
         id="g1420"
         transform="matrix(1.25,0,0,-1.25,-741.24268,5244.1106)">
        <g
           clip-path="url(#clipPath1424)"
           id="g1422">
          <g
             id="g1428">
            <g
               id="g1430" />
            <g
               id="g1436">
              <g
                 style="opacity:0.10000598"
                 id="g1438"
                 clip-path="url(#clipPath1432)">
                <g
                   id="g1440"
                   transform="translate(1325.5596,3876.1016)">
                  <path
                     inkscape:connector-curvature="0"
                     id="path1442"
                     style="fill:#26282b;fill-opacity:1;fill-rule:nonzero;stroke:none"
                     d="m 0,0 0,155.766 101.12,0 L 166.707,0 0,0 Z m 123.471,-164.788 c -0.4,-7.396 -2.799,-14.309 -6.701,-20.073 -7.17,-10.746 -19.416,-17.79 -33.268,-17.79 -21.397,0 -38.874,16.719 -39.988,37.863 -0.043,0.726 -0.08,1.446 -0.08,2.128 0,22.148 17.963,40.052 40.068,40.052 6.313,0 12.252,-1.429 17.605,-4.038 13.288,-6.535 22.426,-20.146 22.426,-36.014 0,-0.682 -0.012,-1.402 -0.062,-2.128 m -351.643,124.414 0,190.037 107.531,-190.037 -107.531,0 z m -9.538,-162.277 c -22.093,0 -40.067,17.912 -40.067,39.991 0,22.148 17.974,40.052 40.067,40.052 22.129,0 40.03,-17.904 40.03,-40.052 0,-22.079 -17.901,-39.991 -40.03,-39.991 m 371.759,398 c -2.307,5.23 -7.488,8.539 -13.188,8.539 l -41.021,0 c -0.627,22.685 -19.175,40.925 -41.969,40.925 -22.769,0 -41.36,-18.24 -41.945,-40.925 l -55.341,0 c -7.981,0 -14.468,-6.436 -14.468,-14.436 l 0,-40.081 0.031,-28.952 0,-159.011 c -34.061,59.995 -158.615,279.195 -158.991,279.993 -11.058,21.099 -28.805,38.29 -53.692,38.29 -31.459,0 -57.095,-25.661 -57.095,-57.161 0,-19.237 9.668,-36.279 24.344,-46.573 l -11.803,-30.996 c -1.452,-3.841 -1.366,-8.149 0.357,-11.927 1.686,-3.793 4.812,-6.715 8.689,-8.215 10.295,-3.908 15.508,-15.461 11.625,-25.748 -1.939,-5.016 -5.631,-8.941 -10.542,-11.157 -4.86,-2.19 -10.338,-2.339 -15.267,-0.405 -5.39,1.991 -9.649,6.294 -11.625,11.667 -3.021,8.11 -11.988,12.196 -20.08,9.208 -8.117,-3.012 -12.214,-12.014 -9.187,-20.076 5.144,-13.828 16.012,-24.775 29.803,-30.006 5.902,-2.242 12.054,-3.365 18.197,-3.365 7.132,0 14.265,1.512 20.947,4.484 12.506,5.65 22.02,15.754 26.91,28.572 8.094,21.313 0.942,44.689 -15.956,58.21 l 7.433,19.569 c 1.096,-0.061 2.137,-0.368 3.268,-0.368 5.871,0 11.404,1.156 16.757,2.841 l 0,-208.619 -44.443,0 -28.922,0 -32.234,0 c -8.055,0 -14.511,-6.431 -14.511,-14.47 l 0,-95.506 c 0,-7.952 6.456,-14.438 14.511,-14.438 l 57.625,0 c 1.15,-43.212 36.523,-77.906 80.024,-77.906 43.507,0 78.893,34.694 80.036,77.906 l 161.109,0 c 1.18,-43.212 36.534,-77.906 80.067,-77.906 43.508,0 78.873,34.694 80.006,77.906 l 44.129,0 c 7.988,0 14.474,6.486 14.474,14.438 l 0,145.599 c 0,2.08 -0.413,4.049 -1.261,5.957 l -86.801,194.143 z" />
                </g>
                <g
                   id="g1444"
                   transform="translate(1087.8428,3732.2373)">
                  <path
                     inkscape:connector-curvature="0"
                     id="path1446"
                     style="fill:#26282b;fill-opacity:1;fill-rule:nonzero;stroke:none"
                     d="m 0,0 c -10.369,0 -18.763,-8.407 -18.763,-18.756 0,-10.363 8.394,-18.776 18.763,-18.776 10.369,0 18.764,8.413 18.764,18.776 C 18.764,-8.407 10.369,0 0,0" />
                </g>
                <g
                   id="g1448"
                   transform="translate(1409.0488,3732.2373)">
                  <path
                     inkscape:connector-curvature="0"
                     id="path1450"
                     style="fill:#26282b;fill-opacity:1;fill-rule:nonzero;stroke:none"
                     d="m 0,0 c -10.362,0 -18.763,-8.407 -18.763,-18.756 0,-10.363 8.401,-18.776 18.763,-18.776 10.369,0 18.763,8.413 18.763,18.776 C 18.763,-8.407 10.369,0 0,0" />
                </g>
                <g
                   id="g1452"
                   transform="translate(1318.083,4159.543)">
                  <path
                     inkscape:connector-curvature="0"
                     id="path1454"
                     style="fill:#26282b;fill-opacity:1;fill-rule:nonzero;stroke:none"
                     d="m 0,0 c -5.034,-5.029 -5.028,-13.176 0,-18.205 5.021,-5.04 13.188,-5.04 18.209,-0.005 13.772,13.783 36.184,13.783 49.963,0.005 5.021,-5.04 13.176,-5.04 18.21,-0.005 5.033,5.021 5.014,13.176 0,18.21 C 62.565,23.8 23.803,23.82 0,0" />
                </g>
                <g
                   id="g1456"
                   transform="translate(1433.1104,4179.8906)">
                  <path
                     inkscape:connector-curvature="0"
                     id="path1458"
                     style="fill:#26282b;fill-opacity:1;fill-rule:nonzero;stroke:none"
                     d="m 0,0 c 5.028,5.021 5.028,13.177 0.013,18.21 -39.625,39.624 -104.086,39.624 -143.693,0.008 -5.021,-5.023 -5.021,-13.197 0,-18.218 5.028,-5.008 13.182,-5.008 18.215,0 C -95.9,29.577 -47.772,29.577 -18.209,0 -13.176,-5.008 -5.021,-5.021 0,0" />
                </g>
                <g
                   id="g1460"
                   transform="translate(1274.458,4216.6914)">
                  <path
                     inkscape:connector-curvature="0"
                     id="path1462"
                     style="fill:#26282b;fill-opacity:1;fill-rule:nonzero;stroke:none"
                     d="m 0,0 c 48.837,48.845 128.309,48.837 177.156,0 5.022,-5.047 13.164,-5.047 18.198,0 5.039,5.008 5.039,13.181 0,18.192 C 136.468,77.076 40.672,77.076 -18.203,18.209 -23.224,13.194 -23.224,5.033 -18.203,0 -13.169,-5.033 -5.027,-5.033 0,0" />
                </g>
              </g>
            </g>
          </g>
        </g>
      </g>
    </g>
  </g>
</svg>
