<?xml version="1.0" encoding="UTF-8" standalone="no"?>
<!-- Created with Inkscape (http://www.inkscape.org/) -->

<svg
   xmlns:dc="http://purl.org/dc/elements/1.1/"
   xmlns:cc="http://creativecommons.org/ns#"
   xmlns:rdf="http://www.w3.org/1999/02/22-rdf-syntax-ns#"
   xmlns:svg="http://www.w3.org/2000/svg"
   xmlns="http://www.w3.org/2000/svg"
   xmlns:sodipodi="http://sodipodi.sourceforge.net/DTD/sodipodi-0.dtd"
   xmlns:inkscape="http://www.inkscape.org/namespaces/inkscape"
   width="2400"
   height="1800"
   viewBox="0 0 2400 1799.9999"
   id="svg8302"
   version="1.1"
   inkscape:version="0.91 r13725"
   sodipodi:docname="popup_plus.svg">
  <defs
     id="defs8304" />
  <sodipodi:namedview
     id="base"
     pagecolor="#ffffff"
     bordercolor="#666666"
     borderopacity="1.0"
     inkscape:pageopacity="0.0"
     inkscape:pageshadow="2"
     inkscape:zoom="0.175"
     inkscape:cx="974.07636"
     inkscape:cy="479.01913"
     inkscape:document-units="px"
     inkscape:current-layer="layer1"
     showgrid="false"
     units="px"
     inkscape:window-width="959"
     inkscape:window-height="744"
     inkscape:window-x="65"
     inkscape:window-y="24"
     inkscape:window-maximized="1" />
  <metadata
     id="metadata8307">
    <rdf:RDF>
      <cc:Work
         rdf:about="">
        <dc:format>image/svg+xml</dc:format>
        <dc:type
           rdf:resource="http://purl.org/dc/dcmitype/StillImage" />
        <dc:title />
      </cc:Work>
    </rdf:RDF>
  </metadata>
  <g
     inkscape:label="Capa 1"
     inkscape:groupmode="layer"
     id="layer1"
     transform="translate(0,747.63772)">
    <path
       d="m 4.4715471,1053.6484 2388.1995529,0 0,-1802.70213 -2388.1995529,0 0,1802.70213 z"
       style="fill:#e9e9e9;fill-opacity:1;fill-rule:nonzero;stroke:none"
       id="path1418"
       inkscape:connector-curvature="0"
       inkscape:export-xdpi="90"
       inkscape:export-ydpi="90" />
    <path
       d="m 1889.4315,597.49285 0,-254.52749 165.2337,0 107.1718,254.52749 -272.4055,0 z m 201.7562,269.26975 c -0.6536,12.08534 -4.5736,23.3815 -10.9497,32.8001 -11.716,17.55934 -31.7265,29.0695 -54.3613,29.0695 -34.9635,0 -63.5215,-27.31951 -65.3417,-61.8696 -0.07,-1.18631 -0.1318,-2.36284 -0.1318,-3.47724 0,-36.19066 29.3524,-65.44647 65.4728,-65.44647 10.3156,0 20.0202,2.33511 28.7672,6.59825 21.713,10.6785 36.645,32.91931 36.645,58.84822 0,1.1144 -0.02,2.29093 -0.1012,3.47724 m -574.5979,-203.29711 0,-310.5276 175.7099,310.5276 -175.7099,0 z m -15.5852,265.16671 c -36.101,0 -65.4713,-29.26886 -65.4713,-65.34684 0,-36.19066 29.3703,-65.44647 65.4713,-65.44647 36.1596,0 65.4105,29.25581 65.4105,65.44647 0,36.07798 -29.2509,65.34684 -65.4105,65.34684 m 607.4677,-650.34695 c -3.7699,-8.54601 -12.2356,-13.95304 -21.5496,-13.95304 l -67.03,0 c -1.0245,-37.06815 -31.3328,-66.873 -68.5789,-66.873 -37.2055,0 -67.5839,29.80485 -68.5399,66.873 l -90.4291,0 c -13.0414,0 -23.6411,10.51668 -23.6411,23.58898 l 0,65.49385 0.05,47.30865 0,259.82995 c -55.656,-98.0341 -259.1819,-456.21513 -259.7964,-457.51909 -18.0691,-34.47655 -47.0684,-62.5673 -87.7349,-62.5673 -51.4051,0 -93.2952,41.93105 -93.2952,93.40324 0,31.43396 15.7977,59.28122 39.779,76.10201 l -19.2865,50.64864 c -2.3728,6.27632 -2.232,13.31576 0.5832,19.48916 2.755,6.1979 7.863,10.97256 14.1983,13.42361 16.8225,6.38583 25.3405,25.26385 18.9956,42.0732 -3.1684,8.19634 -9.2011,14.60994 -17.226,18.23095 -7.9415,3.57855 -16.8926,3.82203 -24.9469,0.6618 -8.8072,-3.25336 -15.7667,-10.28462 -18.9956,-19.06432 -4.9364,-13.25204 -19.589,-19.92873 -32.8115,-15.0462 -13.2635,4.92171 -19.9581,19.63131 -15.0119,32.80492 8.4055,22.59548 26.1643,40.48328 48.6993,49.03094 9.644,3.6635 19.6966,5.49854 29.7345,5.49854 11.654,0 23.3096,-2.47068 34.2281,-7.32704 20.4354,-9.2323 35.9815,-25.74264 43.972,-46.68771 13.2259,-34.82625 1.5391,-73.0235 -26.0726,-95.11733 l 12.1457,-31.9765 c 1.791,0.0999 3.4919,0.60134 5.34,0.60134 9.5934,0 18.6348,-1.88894 27.3815,-4.6423 l 0,340.89129 -72.6215,0 -47.2596,0 -52.6715,0 c -13.1621,0 -23.7115,10.50847 -23.7115,23.64451 l 0,156.06036 c 0,12.99388 10.5494,23.59224 23.7115,23.59224 l 94.1614,0 c 1.8791,70.60994 59.6801,127.3013 130.7621,127.3013 71.0924,0 128.9144,-56.69136 130.782,-127.3013 l 263.2581,0 c 1.9283,70.60994 59.6979,127.3013 130.8325,127.3013 71.0938,0 128.8814,-56.69136 130.7328,-127.3013 l 72.1085,0 c 13.0527,0 23.6511,-10.59836 23.6511,-23.59224 l 0,-237.9142 c 0,-3.3988 -0.675,-6.61621 -2.0606,-9.73396 L 2108.4722,278.28525 Z"
       style="opacity:0.10000598;fill:#26282b;fill-opacity:1;fill-rule:nonzero;stroke:none"
       id="path1442"
       inkscape:connector-curvature="0"
       inkscape:export-xdpi="90"
       inkscape:export-ydpi="90" />
  </g>
</svg>
