<?xml version="1.0" encoding="UTF-8" standalone="no"?>
<!-- Created with Inkscape (http://www.inkscape.org/) -->

<svg
   xmlns:dc="http://purl.org/dc/elements/1.1/"
   xmlns:cc="http://creativecommons.org/ns#"
   xmlns:rdf="http://www.w3.org/1999/02/22-rdf-syntax-ns#"
   xmlns:svg="http://www.w3.org/2000/svg"
   xmlns="http://www.w3.org/2000/svg"
   xmlns:sodipodi="http://sodipodi.sourceforge.net/DTD/sodipodi-0.dtd"
   xmlns:inkscape="http://www.inkscape.org/namespaces/inkscape"
   width="210mm"
   height="297mm"
   viewBox="0 0 744.09448819 1052.3622047"
   id="svg8308"
   version="1.1"
   inkscape:version="0.91 r13725"
   sodipodi:docname="redes_sociales.svg">
  <defs
     id="defs8310" />
  <sodipodi:namedview
     id="base"
     pagecolor="#ffffff"
     bordercolor="#666666"
     borderopacity="1.0"
     inkscape:pageopacity="0.0"
     inkscape:pageshadow="2"
     inkscape:zoom="1.4"
     inkscape:cx="410.62338"
     inkscape:cy="746.41228"
     inkscape:document-units="px"
     inkscape:current-layer="layer1"
     showgrid="false"
     inkscape:window-width="959"
     inkscape:window-height="744"
     inkscape:window-x="65"
     inkscape:window-y="24"
     inkscape:window-maximized="1" />
  <metadata
     id="metadata8313">
    <rdf:RDF>
      <cc:Work
         rdf:about="">
        <dc:format>image/svg+xml</dc:format>
        <dc:type
           rdf:resource="http://purl.org/dc/dcmitype/StillImage" />
        <dc:title />
      </cc:Work>
    </rdf:RDF>
  </metadata>
  <g
     inkscape:label="Capa 1"
     inkscape:groupmode="layer"
     id="layer1">
    <path
       inkscape:connector-curvature="0"
       id="path3056"
       style="fill:#f16425;fill-opacity:1;fill-rule:nonzero;stroke:none"
       d="m 267.36369,224.61256 c -0.94887,0.41559 -1.96821,0.69386 -3.03987,0.821 1.09418,-0.64517 1.93189,-1.66524 2.32786,-2.88293 -1.02225,0.59722 -2.15567,1.03169 -3.36173,1.26491 -0.9634,-1.01208 -2.33803,-1.6449 -3.8616,-1.6449 -2.92071,0 -5.28998,2.33294 -5.28998,5.20861 0,0.40905 0.0465,0.80501 0.13587,1.18645 -4.39634,-0.21724 -8.29644,-2.29153 -10.90546,-5.44183 -0.45555,0.76869 -0.71783,1.66379 -0.71783,2.61847 0,1.8062 0.93579,3.40024 2.35546,4.33603 -0.86749,-0.0291 -1.68413,-0.26374 -2.39615,-0.65244 l 0,0.0668 c 0,0.66552 0.1286,1.30125 0.36182,1.88757 0.64445,1.63182 2.09972,2.86623 3.88194,3.21933 -0.44465,0.11915 -0.91109,0.18309 -1.39497,0.18309 -0.34075,0 -0.67133,-0.0342 -0.99537,-0.0952 0.67496,2.0692 2.62865,3.57606 4.9427,3.61893 -1.81128,1.39642 -4.09191,2.22904 -6.57234,2.22904 -0.42721,0 -0.84715,-0.024 -1.26201,-0.0734 2.34238,1.47852 5.12506,2.3402 8.11116,2.3402 8.271,0 13.35392,-5.73099 14.69512,-11.67487 0.23758,-1.05131 0.36037,-2.10916 0.36037,-3.14304 0,-0.22595 -0.007,-0.45118 -0.0145,-0.67423 1.03242,-0.73527 1.93043,-1.65144 2.63954,-2.69767"
       inkscape:export-filename="/var/www/html/tugruero/web/img/fresh/twitter.png"
       inkscape:export-xdpi="90"
       inkscape:export-ydpi="90" />
    <path
       inkscape:connector-curvature="0"
       id="path3060"
       style="fill:#f16425;fill-opacity:1;fill-rule:nonzero;stroke:none"
       d="m 254.4675,250.50645 c -9.95078,0 -18.01762,-8.06757 -18.01762,-18.01835 0,-9.9515 8.06684,-18.01762 18.01762,-18.01762 9.95005,0 18.01762,8.06612 18.01762,18.01762 0,9.95078 -8.06757,18.01835 -18.01762,18.01835 m 0,-38.02089 c -11.04568,0 -19.99964,8.95396 -19.99964,20.00254 0,11.04568 8.95396,19.99964 19.99964,19.99964 11.04568,0 20.00036,-8.95396 20.00036,-19.99964 0,-11.04858 -8.95468,-20.00254 -20.00036,-20.00254"
       inkscape:export-filename="/var/www/html/tugruero/web/img/fresh/twitter.png"
       inkscape:export-xdpi="90"
       inkscape:export-ydpi="90" />
    <path
       inkscape:connector-curvature="0"
       id="path3064"
       style="fill:#f16425;fill-opacity:1;fill-rule:nonzero;stroke:none"
       d="m 391.69328,247.32907 0,-2.06339 c 0,-1.00481 0.66915,-1.23731 1.13923,-1.23731 l 2.89456,0 0,-4.4203 -3.98584,-0.0167 c -4.42248,0 -5.4273,3.29706 -5.4273,5.40623 l 0,2.33148 -2.55817,0 0,3.11616 0,2.04232 2.57924,0 0,12.89547 5.15921,0 0,-12.89547 3.82744,0 0.18455,-2.02634 0.28625,-3.13214 -4.09917,0 z"
       inkscape:export-filename="/var/www/html/tugruero/web/img/fresh/facebook.png"
       inkscape:export-xdpi="90"
       inkscape:export-ydpi="90" />
    <path
       inkscape:connector-curvature="0"
       id="path3068"
       style="fill:#f16425;fill-opacity:1;fill-rule:nonzero;stroke:none"
       d="m 389.77404,270.50691 c -9.94933,0 -18.01762,-8.06757 -18.01762,-18.01834 0,-9.95151 8.06829,-18.01762 18.01762,-18.01762 9.9515,0 18.01834,8.06611 18.01834,18.01762 0,9.95077 -8.06684,18.01834 -18.01834,18.01834 m 0,-38.02088 c -11.04568,0 -19.99964,8.95395 -19.99964,20.00254 0,11.04568 8.95396,19.99963 19.99964,19.99963 11.04568,0 20.00036,-8.95395 20.00036,-19.99963 0,-11.04859 -8.95468,-20.00254 -20.00036,-20.00254"
       inkscape:export-filename="/var/www/html/tugruero/web/img/fresh/facebook.png"
       inkscape:export-xdpi="90"
       inkscape:export-ydpi="90" />
    <path
       inkscape:connector-curvature="0"
       id="path3072"
       style="fill:#f16425;fill-opacity:1;fill-rule:nonzero;stroke:none"
       d="m 591.379,237.54124 c 0,1.36368 -1.10939,2.47162 -2.47235,2.47162 l -15.82142,0 c -1.36368,0 -2.47089,-1.10794 -2.47089,-2.47162 l 0,-9.21954 0,-1.33752 3.8491,0 c -0.0966,0.23539 -0.178,0.48023 -0.24847,0.72797 -0.17364,0.60955 -0.26954,1.2518 -0.26954,1.91802 0,3.88906 3.16254,7.05087 7.0516,7.05087 3.88834,0 7.05088,-3.16181 7.05088,-7.05087 0,-0.66622 -0.0959,-1.30847 -0.27027,-1.91802 -0.0712,-0.24774 -0.15402,-0.49258 -0.24919,-0.72797 l 3.85055,0 0,1.33752 0,9.21954 z m -14.06106,-10.55706 c 0.8246,-1.14427 2.1643,-1.89186 3.67909,-1.89186 1.51407,0 2.85377,0.74759 3.67983,1.89186 0.10026,0.13731 0.18889,0.28334 0.27244,0.43301 0.37053,0.65532 0.58703,1.41017 0.58703,2.21298 0,2.50213 -2.03862,4.53784 -4.5393,4.53784 -2.50286,0 -4.53929,-2.03571 -4.53929,-4.53784 0,-0.80353 0.2165,-1.55839 0.5863,-2.21371 0.0836,-0.14894 0.17364,-0.29497 0.2739,-0.43228 m 13.0185,-7.27537 0.5696,-0.003 0,0.56886 0,3.80188 -4.35549,0.0138 -0.0153,-4.37001 3.80116,-0.0116 z m -1.42979,-2.97437 -15.82142,0 c -2.7477,0 -4.98247,2.2355 -4.98247,4.98538 l 0,5.26436 0,1.93836 0,8.6187 c 0,2.74843 2.23477,4.98393 4.98247,4.98393 l 15.82142,0 c 2.7477,0 4.98466,-2.2355 4.98466,-4.98393 l 0,-8.6158 0,-1.94126 0,-5.26436 c 0,-2.74988 -2.23696,-4.98538 -4.98466,-4.98538"
       inkscape:export-filename="/var/www/html/tugruero/web/img/fresh/instagram.png"
       inkscape:export-xdpi="90"
       inkscape:export-ydpi="90" />
    <path
       inkscape:connector-curvature="0"
       id="path3076"
       style="fill:#f16425;fill-opacity:1;fill-rule:nonzero;stroke:none"
       d="m 580.99696,247.64938 c -9.94896,0 -18.01769,-8.06728 -18.01769,-18.01769 0,-9.95114 8.06873,-18.01696 18.01769,-18.01696 9.95041,0 18.01769,8.06582 18.01769,18.01696 0,9.95041 -8.06728,18.01769 -18.01769,18.01769 m 0,-38.01951 c -11.046,0 -20.00036,8.95363 -20.00036,20.00182 0,11.04528 8.95436,19.99891 20.00036,19.99891 11.04528,0 19.99964,-8.95363 19.99964,-19.99891 0,-11.04819 -8.95436,-20.00182 -19.99964,-20.00182"
       inkscape:export-filename="/var/www/html/tugruero/web/img/fresh/instagram.png"
       inkscape:export-xdpi="90"
       inkscape:export-ydpi="90" />
  </g>
</svg>
