<?xml version="1.0" encoding="UTF-8" standalone="no"?>
<!-- Generator: Adobe Illustrator 15.0.0, SVG Export Plug-In . SVG Version: 6.00 Build 0)  -->

<svg
   xmlns:dc="http://purl.org/dc/elements/1.1/"
   xmlns:cc="http://creativecommons.org/ns#"
   xmlns:rdf="http://www.w3.org/1999/02/22-rdf-syntax-ns#"
   xmlns:svg="http://www.w3.org/2000/svg"
   xmlns="http://www.w3.org/2000/svg"
   xmlns:sodipodi="http://sodipodi.sourceforge.net/DTD/sodipodi-0.dtd"
   xmlns:inkscape="http://www.inkscape.org/namespaces/inkscape"
   version="1.1"
   id="Layer_1"
   x="0px"
   y="0px"
   width="246px"
   height="100px"
   viewBox="0 0 246 100"
   enable-background="new 0 0 246 100"
   xml:space="preserve"
   inkscape:version="0.48.4 r9939"
   sodipodi:docname="Error.svg"><metadata
     id="metadata9"><rdf:RDF><cc:Work
         rdf:about=""><dc:format>image/svg+xml</dc:format><dc:type
           rdf:resource="http://purl.org/dc/dcmitype/StillImage" /></cc:Work></rdf:RDF></metadata><defs
     id="defs7" /><sodipodi:namedview
     pagecolor="#ffffff"
     bordercolor="#666666"
     borderopacity="1"
     objecttolerance="10"
     gridtolerance="10"
     guidetolerance="10"
     inkscape:pageopacity="0"
     inkscape:pageshadow="2"
     inkscape:window-width="1680"
     inkscape:window-height="961"
     id="namedview5"
     showgrid="false"
     inkscape:zoom="1.5812501"
     inkscape:cx="59.605999"
     inkscape:cy="9.9194543"
     inkscape:window-x="0"
     inkscape:window-y="28"
     inkscape:window-maximized="1"
     inkscape:current-layer="Layer_1" /><path
     d="M158.001,14.999c-19.331-19.332-50.672-19.332-70.003,0c-19.331,19.331-19.331,50.671,0,70.003  c19.332,19.331,50.671,19.331,70.003,0S177.333,34.331,158.001,14.999L158.001,14.999z M147.703,61.936  c1.058,1.057,1.058,2.774,0,3.821l-8.938,8.939c-1.057,1.056-2.776,1.056-3.831,0l-11.94-11.939l-11.938,11.939  c-1.057,1.056-2.766,1.056-3.823,0l-8.938-8.939c-1.056-1.057-1.056-2.775,0-3.821l11.938-11.94L98.294,38.059  c-1.056-1.058-1.056-2.777,0-3.833l8.938-8.938c1.057-1.057,2.777-1.057,3.823,0l11.939,11.938l11.94-11.938  c1.055-1.057,2.774-1.057,3.831,0l8.938,8.938c1.058,1.056,1.058,2.775,0,3.833l-11.938,11.937L147.703,61.936z"
     id="path3"
     fill="#CCCCCC" /></svg>