<?xml version="1.0" encoding="UTF-8" standalone="no"?>
<!-- Created with Inkscape (http://www.inkscape.org/) -->

<svg
   xmlns:dc="http://purl.org/dc/elements/1.1/"
   xmlns:cc="http://creativecommons.org/ns#"
   xmlns:rdf="http://www.w3.org/1999/02/22-rdf-syntax-ns#"
   xmlns:svg="http://www.w3.org/2000/svg"
   xmlns="http://www.w3.org/2000/svg"
   xmlns:sodipodi="http://sodipodi.sourceforge.net/DTD/sodipodi-0.dtd"
   xmlns:inkscape="http://www.inkscape.org/namespaces/inkscape"
   width="213"
   height="213"
   id="svg3673"
   version="1.1"
   inkscape:version="0.48.4 r9939"
   sodipodi:docname="bg5.svg"
   inkscape:export-filename="/var/www/html/tugruero/web/img/bg5.png"
   inkscape:export-xdpi="90"
   inkscape:export-ydpi="90">
  <defs
     id="defs3675" />
  <sodipodi:namedview
     id="base"
     pagecolor="#ffffff"
     bordercolor="#666666"
     borderopacity="1.0"
     inkscape:pageopacity="0.0"
     inkscape:pageshadow="2"
     inkscape:zoom="2.8"
     inkscape:cx="38.472977"
     inkscape:cy="105.35581"
     inkscape:document-units="px"
     inkscape:current-layer="g3763"
     showgrid="false"
     inkscape:window-width="1680"
     inkscape:window-height="961"
     inkscape:window-x="0"
     inkscape:window-y="28"
     inkscape:window-maximized="1"
     showguides="true"
     inkscape:guide-bbox="true" />
  <metadata
     id="metadata3678">
    <rdf:RDF>
      <cc:Work
         rdf:about="">
        <dc:format>image/svg+xml</dc:format>
        <dc:type
           rdf:resource="http://purl.org/dc/dcmitype/StillImage" />
        <dc:title></dc:title>
      </cc:Work>
    </rdf:RDF>
  </metadata>
  <g
     inkscape:label="Capa 1"
     inkscape:groupmode="layer"
     id="layer1"
     transform="translate(0,-839.36218)">
    <g
       id="g4624"
       transform="matrix(0.96598638,0,0,0.97706413,4.7453794,24.422556)"
       inkscape:export-filename="/var/www/html/tugruero/web/img/bg2.png"
       inkscape:export-xdpi="90"
       inkscape:export-ydpi="90">
      <g
         id="g2996"
         transform="matrix(1.0150905,0,0,1.0100604,-4.102041,-8.5401964)"
         inkscape:export-filename="/var/www/html/tugruero/web/img/bg2.png"
         inkscape:export-xdpi="90"
         inkscape:export-ydpi="90">
        <g
           id="g2990"
           transform="matrix(1.0198854,0,0,1,0.03719487,0)"
           inkscape:export-filename="/var/www/html/tugruero/web/img/bg2.png"
           inkscape:export-xdpi="90"
           inkscape:export-ydpi="90">
          <path
             d="M 0,0 0,213 M 10,0 10,213 M 20,0 20,213 M 30,0 30,213 M 40,0 40,213 M 50,0 50,213 M 60,0 60,213 M 70,0 70,213 M 80,0 80,213 M 90,0 90,213 M 100,0 100,213 M 110,0 110,213 M 120,0 120,213 M 130,0 130,213 M 140,0 140,213 M 150,0 150,213 M 160,0 160,213 M 170,0 170,213 M 180,0 180,213 M 190,0 190,213 M 200,0 200,213 M 210,0 210,213 M 0,0 213,0 M 0,10 213,10 M 0,20 213,20 M 0,30 213,30 M 0,40 213,40 M 0,50 213,50 M 0,60 213,60 M 0,70 213,70 M 0,80 213,80 M 0,90 213,90 m -213,10 213,0 m -213,10 213,0 m -213,10 213,0 m -213,10 213,0 m -213,10 213,0 m -213,10 213,0 m -213,10 213,0 m -213,10 213,0 m -213,10 213,0 m -213,10 213,0 m -213,10 213,0 m -213,10 213,0"
             style="fill:none;fill-opacity:0.75000000;fill-rule:evenodd;stroke:#000000;stroke-linecap:butt;stroke-linejoin:miter;stroke-opacity:1.0000000;stroke-width:1pt"
             id="path2987" />
          <path
             d="M 0,0 0,213 M 10,0 10,213 M 20,0 20,213 M 30,0 30,213 M 40,0 40,213 M 50,0 50,213 M 60,0 60,213 M 70,0 70,213 M 80,0 80,213 M 90,0 90,213 M 100,0 100,213 M 110,0 110,213 M 120,0 120,213 M 130,0 130,213 M 140,0 140,213 M 150,0 150,213 M 160,0 160,213 M 170,0 170,213 M 180,0 180,213 M 190,0 190,213 M 200,0 200,213 M 210,0 210,213 M 0,0 213,0 M 0,10 213,10 M 0,20 213,20 M 0,30 213,30 M 0,40 213,40 M 0,50 213,50 M 0,60 213,60 M 0,70 213,70 M 0,80 213,80 M 0,90 213,90 m -213,10 213,0 m -213,10 213,0 m -213,10 213,0 m -213,10 213,0 m -213,10 213,0 m -213,10 213,0 m -213,10 213,0 m -213,10 213,0 m -213,10 213,0 m -213,10 213,0 m -213,10 213,0 m -213,10 213,0"
             style="fill:none;fill-opacity:0.75000000;fill-rule:evenodd;stroke:#000000;stroke-linecap:butt;stroke-linejoin:miter;stroke-opacity:1.0000000;stroke-width:1pt"
             id="path2989" />
          <path
             d="M 0,0 0,213 M 10,0 10,213 M 20,0 20,213 M 30,0 30,213 M 40,0 40,213 M 50,0 50,213 M 60,0 60,213 M 70,0 70,213 M 80,0 80,213 M 90,0 90,213 M 100,0 100,213 M 110,0 110,213 M 120,0 120,213 M 130,0 130,213 M 140,0 140,213 M 150,0 150,213 M 160,0 160,213 M 170,0 170,213 M 180,0 180,213 M 190,0 190,213 M 200,0 200,213 M 210,0 210,213 M 0,0 213,0 M 0,10 213,10 M 0,20 213,20 M 0,30 213,30 M 0,40 213,40 M 0,50 213,50 M 0,60 213,60 M 0,70 213,70 M 0,80 213,80 M 0,90 213,90 m -213,10 213,0 m -213,10 213,0 m -213,10 213,0 m -213,10 213,0 m -213,10 213,0 m -213,10 213,0 m -213,10 213,0 m -213,10 213,0 m -213,10 213,0 m -213,10 213,0 m -213,10 213,0 m -213,10 213,0"
             style="fill:none;fill-opacity:0.75000000;fill-rule:evenodd;stroke:#000000;stroke-linecap:butt;stroke-linejoin:miter;stroke-opacity:1.0000000;stroke-width:1pt"
             id="path2991" />
          <g
             id="g3767"
             inkscape:export-filename="/var/www/html/tugruero/web/img/bg2.png"
             inkscape:export-xdpi="90"
             inkscape:export-ydpi="90">
            <g
               id="g3762"
               inkscape:export-filename="/var/www/html/tugruero/web/img/bg2.png"
               inkscape:export-xdpi="90"
               inkscape:export-ydpi="90">
              <g
                 id="g3763"
                 inkscape:export-filename="/var/www/html/tugruero/web/img/bg2.png"
                 inkscape:export-xdpi="90"
                 inkscape:export-ydpi="90">
                <g
                   id="g2992"
                   inkscape:export-xdpi="90"
                   inkscape:export-ydpi="90"
                   transform="matrix(0.96582136,0,0,0.97675963,-0.02731219,19.390887)"
                   style="opacity:0.99236642"
                   inkscape:export-filename="/var/www/html/tugruero/web/img/bg5.png">
                  <path
                     inkscape:connector-curvature="0"
                     id="path3014"
                     style="opacity:0.8816794;fill:#cc5a27;fill-opacity:1;fill-rule:nonzero;stroke:none"
                     d="m -0.79910116,1052.3622 219.42159116,0 0,-218.00002 -219.42159116,0 0,218.00002 z" />
                </g>
              </g>
            </g>
          </g>
        </g>
      </g>
    </g>
  </g>
</svg>
