<?xml version="1.0" encoding="UTF-8" standalone="no"?>
<svg
   xmlns:dc="http://purl.org/dc/elements/1.1/"
   xmlns:cc="http://creativecommons.org/ns#"
   xmlns:rdf="http://www.w3.org/1999/02/22-rdf-syntax-ns#"
   xmlns:svg="http://www.w3.org/2000/svg"
   xmlns="http://www.w3.org/2000/svg"
   xmlns:sodipodi="http://sodipodi.sourceforge.net/DTD/sodipodi-0.dtd"
   xmlns:inkscape="http://www.inkscape.org/namespaces/inkscape"
   version="1.1"
   x="0px"
   y="0px"
   viewBox="0 0 500 500"
   enable-background="new 0 0 100 100"
   xml:space="preserve"
   id="svg2"
   inkscape:version="0.48.4 r9939"
   width="100%"
   height="100%"
   sodipodi:docname="cardriver.svg"><metadata
     id="metadata20"><rdf:RDF><cc:Work
         rdf:about=""><dc:format>image/svg+xml</dc:format><dc:type
           rdf:resource="http://purl.org/dc/dcmitype/StillImage" /><dc:title></dc:title></cc:Work></rdf:RDF></metadata><defs
     id="defs18" /><sodipodi:namedview
     pagecolor="#ffffff"
     bordercolor="#666666"
     borderopacity="1"
     objecttolerance="10"
     gridtolerance="10"
     guidetolerance="10"
     inkscape:pageopacity="0"
     inkscape:pageshadow="2"
     inkscape:window-width="1680"
     inkscape:window-height="961"
     id="namedview16"
     showgrid="false"
     inkscape:zoom="1.18"
     inkscape:cx="61.143419"
     inkscape:cy="134.31337"
     inkscape:window-x="0"
     inkscape:window-y="28"
     inkscape:window-maximized="1"
     inkscape:current-layer="g3800"
     inkscape:snap-nodes="true"
     inkscape:object-paths="false" /><g
     id="g4"
     transform="matrix(1.1438183,0,0,1.0736738,146.93978,236.691)" /><g
     id="g3850"><g
       transform="matrix(0.92399997,0,0,0.92399997,8.9009508,29.679012)"
       inkscape:export-ydpi="90"
       inkscape:export-xdpi="90"
       inkscape:export-filename="/var/www/html/tugruero/web/img/cardriver.png"
       id="g3800"><g
         id="g3861"
         inkscape:export-xdpi="90"
         inkscape:export-ydpi="90"
         inkscape:export-filename="/var/www/html/tugruero/web/img/cardriver.png"><path
           style="fill:#000000"
           inkscape:connector-curvature="0"
           id="path6"
           d="m 156.94832,63.53897 0,0 C 151.53786,31.436894 114.20567,14.123414 103.2044,10.336091 c 12.08336,-7.2139502 20.19906,-20.740106 20.19906,-36.250098 0,-22.90429 -17.85453,-41.66056 -39.676728,-41.66056 -21.822198,0 -39.676723,18.575921 -39.676723,41.66056 0,16.4117358 9.017437,30.4789378 22.182895,37.33219 -12.444063,3.967672 -50.13695,20.379408 -55.90811,51.399392 l -0.180349,0.541046 c -3.6069748,16.952782 -1.2624412,28.314753 5.951509,30.659287 4.328369,1.442789 11.181622,0 20.199059,-2.705232 L 38.278849,90.77163 38.0985,90.591281 c 4.508719,-2.164185 7.394299,-6.672903 7.394299,-11.722668 v -0.180349 c 0,-4.32837 -2.164185,-8.296042 -5.77116,-10.820924 6.672903,-18.215223 24.166732,-30.298589 43.644396,-30.298589 19.477665,0 36.971495,12.263714 43.644395,30.478937 -3.60697,2.344534 -5.77116,6.492555 -5.77116,10.820925 v 0.541046 c 0,5.590811 3.60698,10.640576 9.01744,12.263715 l 0.18035,0 C 136.56891,93.476861 142.34007,95.1 146.84879,95.1 c 1.26244,0 2.52489,-0.180349 3.60698,-0.541046 9.01743,-2.88558 9.19778,-17.854526 6.49255,-31.019984 z M 45.853496,-25.733658 c 0,-21.822198 16.952782,-39.676724 37.692888,-39.676724 20.740106,0 37.692886,17.674177 37.692886,39.676724 0,22.0025466 -16.95278,39.676723 -37.692886,39.676723 -20.740106,0 -37.692888,-17.8545252 -37.692888,-39.676723 z M 149.73437,92.575118 c -3.96767,1.262441 -11.18162,-0.721395 -18.75627,-2.88558 l -0.18035,0 c -4.50871,-1.44279 -7.57464,-5.77116 -7.57464,-10.460227 v -0.541047 c 0,-3.967672 2.16418,-7.574647 5.59081,-9.558483 l 0.72139,-0.360698 -0.36069,-0.721395 C 122.32136,48.570024 103.92579,35.584915 83.366035,35.584915 c -20.559757,0 -38.955329,12.985109 -45.808581,32.462773 l -0.360697,0.721395 0.721395,0.360698 c 3.426626,1.983836 5.590811,5.590811 5.590811,9.558483 v 0.541047 c 0,4.689067 -3.065929,8.837088 -7.574648,10.279878 l -0.360697,0.180349 C 28.720366,91.673374 20.96537,93.837559 16.637,92.394769 10.685491,90.410933 8.8820038,80.311403 11.587235,65.883504 l 0,0 0.360697,-1.983837 c 5.410463,-32.643122 47.972766,-49.054858 56.809855,-51.219043 4.508718,1.983836 9.558483,3.065929 14.788597,3.065929 6.131857,0 11.903017,-1.44279 17.133126,-4.148021 7.21395,1.803487 48.69417,18.936618 54.28498,52.301135 l 0.36069,1.983837 0,0 c 2.70523,14.24755 0.54105,24.888126 -5.59081,26.691614 z"
           transform="matrix(1.1438183,0,0,1.0736738,146.93978,236.691)" /><path
           style="fill:#000000"
           inkscape:connector-curvature="0"
           id="path8"
           d="m 109.67908,63.484419 -16.278858,14.136885 0.33222,0.595238 c 0.996667,1.636902 1.661108,3.571423 1.661108,5.357135 0,2.380949 -0.830553,4.613089 -2.325551,6.398801 l -1.162775,1.339283 1.99333,-0.148809 c 8.305536,-0.446428 16.112756,-1.339284 23.089416,-2.678568 l 0.66442,-0.148809 0.16613,-0.595237 c 0.16611,-1.488093 0.33222,-2.976187 0.33222,-4.31547 0,-6.994038 -2.65777,-13.988076 -7.6411,-19.494021 l -0.83056,-0.446428 z m 6.1461,23.660682 c -6.1461,1.190474 -13.12276,2.08333 -20.43163,2.529758 1.162776,-1.785712 1.661109,-3.869042 1.661109,-5.952373 0,-1.934521 -0.498333,-3.869042 -1.494998,-5.654754 L 109.34686,66.014178 c 4.31889,5.208326 6.64443,11.160698 6.64443,17.708308 0.16612,1.041665 0,2.23214 -0.16611,3.422615 z"
           transform="matrix(1.1438183,0,0,1.0736738,146.93978,236.691)" /><path
           style="fill:#000000"
           inkscape:connector-curvature="0"
           id="path10"
           d="m 71.141372,83.573677 c 0,-1.934521 0.664444,-3.869042 1.661108,-5.505945 L 73.134703,77.472495 56.855842,63.33561 56.191399,64.079656 c -4.983325,5.505945 -7.807208,12.499983 -7.807208,19.494021 0,1.488093 0.16611,2.976186 0.332222,4.464279 l 0.166109,0.595238 0.664444,0.148809 c 6.976655,1.339284 14.783863,2.23214 23.089405,2.678568 l 1.993328,0.148809 -1.162776,-1.339284 c -1.494997,-2.08333 -2.325551,-4.31547 -2.325551,-6.696419 z M 50.543633,87.29391 c -0.166113,-1.190475 -0.332224,-2.380949 -0.332224,-3.571424 0,-6.3988 2.325552,-12.648792 6.644433,-17.857118 l 13.787197,12.053555 c -0.996664,1.785712 -1.661108,3.720233 -1.661108,5.803563 0,2.083331 0.664444,4.166661 1.82722,6.101182 C 63.666385,89.228431 56.855842,88.484384 50.543633,87.29391 z"
           transform="matrix(1.1438183,0,0,1.0736738,146.93978,236.691)" /><path
           style="fill:#000000"
           inkscape:connector-curvature="0"
           id="path12"
           d="m 83.267461,76.877258 c -4.15277,0 -7.474987,2.976186 -7.474987,6.696419 0,3.720233 3.322217,6.696419 7.474987,6.696419 4.152769,0 7.474987,-2.976186 7.474987,-6.696419 0,-3.720233 -3.322218,-6.696419 -7.474987,-6.696419 z m 0,11.904745 c -3.156106,0 -5.647768,-2.23214 -5.647768,-5.059517 0,-2.827377 2.491662,-5.059517 5.647768,-5.059517 3.156106,0 5.647768,2.23214 5.647768,5.059517 0,2.827377 -2.491662,5.059517 -5.647768,5.059517 z"
           transform="matrix(1.1438183,0,0,1.0736738,146.93978,236.691)" /><path
           style="fill:#000000"
           inkscape:connector-curvature="0"
           id="path14"
           d="m 76.95525,74.347499 c 3.820549,-2.08333 8.803873,-2.08333 12.624423,0 l 0.664443,0.297619 16.278864,-14.136885 -0.83056,-0.595237 C 99.38021,55.151097 91.406891,52.47253 83.267461,52.47253 c -8.139429,0 -16.112749,2.678567 -22.424959,7.291656 l -0.830555,0.595238 16.27886,14.136885 0.664443,-0.14881 z m 6.312211,-20.238067 c 7.474987,0 14.783862,2.23214 20.597739,6.398801 L 89.911893,72.710597 c -1.993329,-1.041665 -4.318881,-1.488093 -6.644432,-1.488093 -2.325551,0 -4.484992,0.446428 -6.478321,1.488093 L 63.001942,60.657042 c 5.647768,-4.31547 12.790532,-6.54761 20.265519,-6.54761 z"
           transform="matrix(1.1438183,0,0,1.0736738,146.93978,236.691)" /><path
           transform="matrix(1.1438183,0,0,1.0736738,-35.549613,-24.960492)"
           inkscape:connector-curvature="0"
           id="path3006"
           d="m 234.125,256.04476 c -2.36508,-0.64029 -5.1965,-1.61976 -6.29205,-2.17662 -27.43821,-13.94642 -29.61964,-52.40383 -3.93966,-69.45438 7.43037,-4.93349 18.37893,-6.9041 27.04144,-4.86713 12.36044,2.90652 23.18218,12.96983 27.31666,25.40223 6.9767,20.97892 -3.80836,43.55617 -24.14607,50.54696 -5.34848,1.83847 -14.30786,2.08461 -19.98032,0.54894 l 0,0 z"
           style="opacity:0.96564882;fill:#ffffff;fill-opacity:1;stroke:#ffffff;stroke-width:0.59924304;stroke-miterlimit:4;stroke-opacity:1;stroke-dasharray:14.38183283, 14.38183283;stroke-dashoffset:0" /><g
           transform="matrix(1.3477598,0,0,-1.3477598,242.11436,378.12724)"
           id="g610"><path
             id="path612"
             style="fill:#282c30;fill-opacity:1;fill-rule:nonzero;stroke:none"
             d="m 0,0 c -46.141,0 -83.553,37.412 -83.553,83.557 0,46.143 37.412,83.55 83.553,83.55 46.146,0 83.557,-37.407 83.557,-83.55 C 83.557,37.412 46.146,0 0,0 m 0,176.309 c -51.219,0 -92.744,-41.529 -92.744,-92.752 0,-51.218 41.525,-92.747 92.744,-92.747 51.223,0 92.749,41.529 92.749,92.747 0,51.223 -41.526,92.752 -92.749,92.752"
             inkscape:connector-curvature="0" /></g></g></g></g></svg>