<?xml version="1.0" encoding="UTF-8" standalone="no"?>
<!-- Created with Inkscape (http://www.inkscape.org/) -->

<svg
   xmlns:dc="http://purl.org/dc/elements/1.1/"
   xmlns:cc="http://creativecommons.org/ns#"
   xmlns:rdf="http://www.w3.org/1999/02/22-rdf-syntax-ns#"
   xmlns:svg="http://www.w3.org/2000/svg"
   xmlns="http://www.w3.org/2000/svg"
   xmlns:sodipodi="http://sodipodi.sourceforge.net/DTD/sodipodi-0.dtd"
   xmlns:inkscape="http://www.inkscape.org/namespaces/inkscape"
   id="svg2"
   version="1.1"
   inkscape:version="0.91 r13725"
   width="990"
   height="765"
   xml:space="preserve"
   sodipodi:docname="grua linea negra.svg"><metadata
     id="metadata8"><rdf:RDF><cc:Work
         rdf:about=""><dc:format>image/svg+xml</dc:format><dc:type
           rdf:resource="http://purl.org/dc/dcmitype/StillImage" /><dc:title /></cc:Work></rdf:RDF></metadata><defs
     id="defs6"><clipPath
       clipPathUnits="userSpaceOnUse"
       id="clipPath16"><path
         d="M 0,612 792,612 792,0 0,0 0,612 z"
         id="path18" /></clipPath></defs><sodipodi:namedview
     pagecolor="#ffffff"
     bordercolor="#666666"
     borderopacity="1"
     objecttolerance="10"
     gridtolerance="10"
     guidetolerance="10"
     inkscape:pageopacity="0"
     inkscape:pageshadow="2"
     inkscape:window-width="1024"
     inkscape:window-height="705"
     id="namedview4"
     showgrid="false"
     inkscape:zoom="0.87256052"
     inkscape:cx="303.97149"
     inkscape:cy="279.39114"
     inkscape:window-x="-8"
     inkscape:window-y="-8"
     inkscape:window-maximized="1"
     inkscape:current-layer="g20" /><g
     id="g10"
     inkscape:groupmode="layer"
     inkscape:label="grua linea negra"
     transform="matrix(1.25,0,0,-1.25,0,765)"><g
       id="g12"
       transform="matrix(0.42838401,0,0,0.42838401,68.816124,101.96921)"
       inkscape:export-filename="/var/www/html/tugruero/web/img/grua_linea_negra.png"
       inkscape:export-xdpi="90"
       inkscape:export-ydpi="90"><g
         id="g14"
         clip-path="url(#clipPath16)"><g
           id="g20"
           transform="translate(210.3301,305.5552)"><g
             id="g144"
             transform="matrix(2.6526068,0,0,2.6526068,37.304362,26.847142)"
             style="stroke:#000000;stroke-opacity:1"
             inkscape:export-xdpi="90"
             inkscape:export-ydpi="90"><path
               inkscape:connector-curvature="0"
               d="m 0,0 11.004,26.121 16.967,0 L 27.971,0 0,0 Z m 7.244,-27.297 c 0,2.659 1.531,4.951 3.766,6.037 0.889,0.438 1.892,0.684 2.947,0.684 3.708,0 6.723,-3.009 6.723,-6.721 0,-0.121 -0.004,-0.242 -0.01,-0.363 -0.193,-3.542 -3.122,-6.348 -6.713,-6.348 -2.322,0 -4.375,1.18 -5.581,2.983 -0.653,0.977 -1.051,2.125 -1.12,3.365 -0.01,0.121 -0.012,0.242 -0.012,0.363 m 40.965,20.523 18.043,31.871 0,-31.871 -18.043,0 z m 12.922,-20.523 c 0,3.712 3.004,6.721 6.719,6.721 3.707,0 6.722,-3.009 6.722,-6.721 0,-3.712 -3.015,-6.711 -6.722,-6.711 -3.715,0 -6.719,2.999 -6.719,6.711 m -70.428,26.496 0,-24.427 c 0,-1.34 1.085,-2.432 2.43,-2.432 l 7.4,0 c 0.196,-7.248 6.129,-13.07 13.424,-13.07 7.307,0 13.239,5.822 13.432,13.07 l 27.035,0 c 0.193,-7.248 6.131,-13.07 13.426,-13.07 7.3,0 13.234,5.822 13.429,13.07 l 9.668,0 c 1.344,0 2.436,1.092 2.436,2.432 l 0,16.018 c 0,1.351 -1.092,2.436 -2.436,2.436 l -5.406,0 -4.861,0 -7.45,0 0,34.991 c 0.889,-0.279 1.823,-0.469 2.805,-0.469 0.192,0 0.365,0.049 0.549,0.054 l 1.252,-3.283 c -2.836,-2.261 -4.035,-6.19 -2.68,-9.77 0.821,-2.145 2.414,-3.848 4.512,-4.783 1.127,-0.508 2.32,-0.757 3.521,-0.757 1.03,0 2.063,0.191 3.047,0.564 2.319,0.878 4.139,2.715 5.004,5.038 0.504,1.348 -0.185,2.859 -1.535,3.362 -1.367,0.504 -2.871,-0.183 -3.375,-1.543 -0.338,-0.901 -1.049,-1.619 -1.949,-1.959 -0.828,-0.319 -1.754,-0.298 -2.565,0.072 -0.822,0.369 -1.447,1.025 -1.763,1.872 -0.651,1.727 0.218,3.659 1.945,4.319 0.65,0.253 1.178,0.748 1.457,1.378 0.289,0.629 0.305,1.346 0.065,2.001 l -1.981,5.197 c 2.461,1.729 4.086,4.585 4.086,7.822 0,5.281 -4.301,9.584 -9.59,9.584 -4.17,0 -7.148,-2.887 -9.002,-6.424 C 66.965,40.357 46.078,3.581 40.362,-6.48 l 0,26.68 0,4.853 0,6.722 c 0,1.343 -1.087,2.427 -2.424,2.427 l -9.286,0 c -0.101,3.804 -3.215,6.861 -7.041,6.861 -3.819,0 -6.933,-3.057 -7.039,-6.861 l -6.879,0 c -0.958,0 -1.834,-0.563 -2.218,-1.435 L -9.088,0.192 c -0.139,-0.315 -0.209,-0.651 -0.209,-0.993"
               style="fill:#202021;fill-opacity:1;fill-rule:nonzero;stroke:#000000;stroke-opacity:1"
               id="path146" /></g><g
             id="g148"
             transform="matrix(2.6526068,0,0,2.6526068,72.871047,136.22315)"
             style="stroke:#000000;stroke-opacity:1"
             inkscape:export-xdpi="90"
             inkscape:export-ydpi="90"><path
               inkscape:connector-curvature="0"
               d="m 0,0 c -0.426,-0.558 -0.959,-0.981 -1.549,-1.267 -0.592,-0.277 -1.23,-0.425 -1.877,-0.427 -0.909,0 -1.841,0.288 -2.607,0.882 l 0,-0.002 -7.51,5.725 c -0.548,0.426 -0.973,0.957 -1.259,1.551 -0.282,0.593 -0.427,1.228 -0.427,1.884 0,0.901 0.286,1.835 0.879,2.601 0.42,0.556 0.96,0.988 1.55,1.263 0.588,0.287 1.23,0.437 1.877,0.437 0.905,0 1.835,-0.295 2.612,-0.885 l 7.507,-5.722 -0.004,0 C -0.26,5.61 0.164,5.074 0.441,4.49 0.739,3.896 0.887,3.261 0.887,2.614 0.887,1.704 0.592,0.774 0,0"
               style="fill:#202021;fill-opacity:1;fill-rule:nonzero;stroke:#000000;stroke-opacity:1"
               id="path150" /></g><g
             id="g152"
             transform="matrix(2.6526068,0,0,2.6526068,94.630918,148.39302)"
             style="stroke:#000000;stroke-opacity:1"
             inkscape:export-xdpi="90"
             inkscape:export-ydpi="90"><path
               inkscape:connector-curvature="0"
               d="M 0,0 C -1.184,0 -2.266,0.484 -3.043,1.263 -3.819,2.038 -4.306,3.12 -4.306,4.3 l 0,9.927 c 0,1.189 0.487,2.271 1.263,3.05 0.772,0.781 1.856,1.259 3.043,1.259 1.187,0 2.271,-0.478 3.049,-1.259 0.778,-0.773 1.265,-1.853 1.26,-3.05 l 0,-9.927 C 4.314,3.12 3.827,2.038 3.049,1.263 2.271,0.484 1.187,0 0,0"
               style="fill:#202021;fill-opacity:1;fill-rule:nonzero;stroke:#000000;stroke-opacity:1"
               id="path154" /></g><g
             id="g156"
             transform="matrix(2.6526068,0,0,2.6526068,152.31478,149.25035)"
             style="stroke:#000000;stroke-opacity:1"
             inkscape:export-xdpi="90"
             inkscape:export-ydpi="90"><path
               inkscape:connector-curvature="0"
               d="m 0,0 0,0 -7.502,-5.726 c -0.776,-0.584 -1.708,-0.879 -2.611,-0.879 -0.646,0.001 -1.293,0.15 -1.877,0.427 -0.592,0.285 -1.131,0.709 -1.549,1.267 -0.594,0.774 -0.889,1.704 -0.889,2.614 0,0.647 0.148,1.282 0.436,1.876 0.287,0.584 0.715,1.12 1.26,1.55 l 7.503,5.722 c 0.778,0.589 1.698,0.879 2.609,0.879 0.649,0 1.285,-0.146 1.877,-0.431 C -0.146,7.023 0.385,6.592 0.809,6.036 1.398,5.27 1.697,4.336 1.697,3.435 1.697,2.779 1.545,2.137 1.262,1.551 0.98,0.957 0.549,0.426 0,0"
               style="fill:#202021;fill-opacity:1;fill-rule:nonzero;stroke:#000000;stroke-opacity:1"
               id="path158" /></g><g
             id="g160"
             transform="matrix(2.6526068,0,0,2.6526068,314.15482,2.4012497)"
             style="stroke:#000000;stroke-opacity:1"
             inkscape:export-xdpi="90"
             inkscape:export-ydpi="90"><path
               inkscape:connector-curvature="0"
               d="M 0,0 C -3.346,1.472 -4.867,5.393 -3.396,8.737 -1.92,12.082 1.996,13.603 5.34,12.129 8.688,10.655 10.213,6.737 8.736,3.391 7.264,0.048 3.346,-1.478 0,0 M 41.475,12.908 17.141,23.623 c 5.386,0.661 19.666,2.256 22.47,1.024 1.125,-0.498 3.369,-1.487 5.887,-2.595 l -4.023,-9.144 z m 4.955,-2.18 4.019,9.139 c 3.637,-1.602 6.717,-2.963 6.717,-2.963 3.404,-1.496 5.107,-5.342 7.08,-9.798 0.75,-1.696 1.568,-3.529 2.525,-5.338 l -20.341,8.96 z m 11.017,-36.027 c -3.347,1.47 -4.871,5.391 -3.396,8.737 1.472,3.344 5.392,4.866 8.74,3.394 3.346,-1.472 4.867,-5.395 3.395,-8.74 -1.475,-3.345 -5.395,-4.868 -8.739,-3.391 m -69.269,57.387 c -4.237,0.389 -8.612,-6.72 -9.27,-12.127 -0.26,-2.138 1.125,-5.147 5.778,-7.194 l 5.875,-2.584 c -2.118,-6.214 0.841,-13.134 6.957,-15.828 6.109,-2.693 13.214,-0.202 16.369,5.552 l 34.117,-15.025 c -2.111,-6.212 0.842,-13.132 6.955,-15.828 6.115,-2.689 13.221,-0.201 16.373,5.555 l 7.145,-3.147 c 2.058,-0.909 4.457,0.029 5.367,2.087 l 5.244,11.913 c 0.732,1.658 0.26,3.547 -1.029,4.685 l -9.791,5.962 c -1.893,3.278 -3.407,6.694 -4.78,9.795 -2.912,6.58 -5.429,12.261 -10.459,14.474 0,0 -20.578,9.076 -23.584,10.398 -2.992,1.318 -34.259,-1.884 -34.259,-1.884 0,0 -14.79,2.991 -17.008,3.196"
               style="fill:#ed884a;fill-opacity:1;fill-rule:nonzero;stroke:#000000;stroke-opacity:1"
               id="path162" /></g></g></g></g></g></svg>