<?xml version="1.0" encoding="UTF-8" standalone="no"?>
<svg
   xmlns:dc="http://purl.org/dc/elements/1.1/"
   xmlns:cc="http://creativecommons.org/ns#"
   xmlns:rdf="http://www.w3.org/1999/02/22-rdf-syntax-ns#"
   xmlns:svg="http://www.w3.org/2000/svg"
   xmlns="http://www.w3.org/2000/svg"
   xmlns:sodipodi="http://sodipodi.sourceforge.net/DTD/sodipodi-0.dtd"
   xmlns:inkscape="http://www.inkscape.org/namespaces/inkscape"
   version="1.1"
   x="0px"
   y="0px"
   viewBox="0 0 100 100"
   enable-background="new 0 0 100 100"
   xml:space="preserve"
   id="svg4136"
   inkscape:version="0.91 r13725"
   sodipodi:docname="smartphone.svg"><metadata
     id="metadata4154"><rdf:RDF><cc:Work
         rdf:about=""><dc:format>image/svg+xml</dc:format><dc:type
           rdf:resource="http://purl.org/dc/dcmitype/StillImage" /></cc:Work></rdf:RDF></metadata><defs
     id="defs4152" /><sodipodi:namedview
     pagecolor="#ffffff"
     bordercolor="#666666"
     borderopacity="1"
     objecttolerance="10"
     gridtolerance="10"
     guidetolerance="10"
     inkscape:pageopacity="0"
     inkscape:pageshadow="2"
     inkscape:window-width="1024"
     inkscape:window-height="705"
     id="namedview4150"
     showgrid="false"
     inkscape:zoom="2.5"
     inkscape:cx="183.02815"
     inkscape:cy="19.776926"
     inkscape:window-x="-8"
     inkscape:window-y="-8"
     inkscape:window-maximized="1"
     inkscape:current-layer="g4138" /><g
     id="g4138"><path
       d="m 73.872473,-8.73 -43.600888,0 c -3.512543,0 -6.369585,2.8570416 -6.369585,6.3695847 l 0,87.2608303 c 0,3.512543 2.857042,6.369585 6.369585,6.369585 l 43.600888,0 c 3.512543,0 6.369585,-2.857042 6.369585,-6.369585 l 0,-87.2608303 C 80.242058,-5.8729584 77.385016,-8.73 73.872473,-8.73 Z m -43.600888,2.9527094 43.600888,0 c 1.883829,0 3.416875,1.5330467 3.416875,3.4168753 l 0,2.14484814 -50.434639,0 0,-2.14484814 c 0,-1.8838286 1.533047,-3.4168753 3.416876,-3.4168753 z m 47.017763,8.5144328 0,69.2906408 -50.434639,0 0,-69.2906408 50.434639,0 z m -3.416875,85.5801488 -43.600888,0 c -1.883829,0 -3.416876,-1.533047 -3.416876,-3.416876 l 0,-9.919922 50.434639,0 0,9.919922 c 0,1.883829 -1.533046,3.416876 -3.416875,3.416876 z"
       id="path4140"
       inkscape:export-xdpi="90"
       inkscape:export-ydpi="90"
       inkscape:connector-curvature="0" /><path
       d="m 52.070848,76.461572 c -2.933812,0 -5.321964,2.38697 -5.321964,5.321963 0,2.934993 2.386971,5.323145 5.321964,5.323145 2.934993,0 5.321963,-2.386971 5.321963,-5.323145 0.0012,-2.933812 -2.38697,-5.321963 -5.321963,-5.321963 z m 0,7.692398 c -1.306279,0 -2.369254,-1.062975 -2.369254,-2.370435 0,-1.30746 1.062975,-2.369254 2.369254,-2.369254 1.306278,0 2.369254,1.061794 2.369254,2.369254 0,1.30746 -1.061795,2.370435 -2.369254,2.370435 z"
       id="path4142"
       inkscape:export-xdpi="90"
       inkscape:export-ydpi="90"
       inkscape:connector-curvature="0" /><path
       d="m 49.903559,-1.566727 4.527094,0 c 0.434639,0 0.787783,-0.3519629 0.787783,-0.7877829 0,-0.4346388 -0.353144,-0.7877828 -0.787783,-0.7877828 l -4.527094,0 c -0.434639,0 -0.787783,0.3519629 -0.787783,0.7877828 0,0.4346389 0.351963,0.7877829 0.787783,0.7877829 z"
       id="path4144"
       inkscape:export-xdpi="90"
       inkscape:export-ydpi="90"
       inkscape:connector-curvature="0" /><path
       d="m 58.035321,30.29537 c 0,-3.284594 -2.671612,-5.956206 -5.956206,-5.956206 -3.284594,0 -5.956205,2.672793 -5.956205,5.956206 0,3.283413 2.672792,5.956205 5.956205,5.956205 3.283413,0 5.956206,-2.671611 5.956206,-5.956205 z m -8.960883,0 c 0,-1.65588 1.347617,-3.003496 3.003496,-3.003496 1.65588,0 3.003496,1.347616 3.003496,3.003496 0,1.655879 -1.347616,3.003496 -3.003496,3.003496 -1.655879,0 -3.003496,-1.347617 -3.003496,-3.003496 z"
       id="path4146"
       inkscape:export-xdpi="90"
       inkscape:export-ydpi="90"
       inkscape:connector-curvature="0" /><path
       d="m 51.031494,56.346534 c 0.274011,0.225587 0.607077,0.335428 0.936599,0.335428 0.02008,0 0.04016,-0.0059 0.06024,-0.0071 0.02008,0.0012 0.04016,0.0071 0.06023,0.0071 0.329522,0 0.662588,-0.109841 0.936599,-0.335428 12.062409,-9.909293 11.693911,-22.9083 11.476591,-25.57755 0.02008,-0.09567 0.05787,-0.184249 0.05787,-0.287003 0,-6.884537 -5.600699,-12.484055 -12.485236,-12.484055 -0.01535,0 -0.03071,0.0024 -0.04606,0.0024 -0.01535,0 -0.03071,-0.0024 -0.04606,-0.0024 -6.884537,0 -12.484055,5.600699 -12.484055,12.484055 0,0.101573 0.0378,0.190154 0.05787,0.285822 -0.2185,2.669249 -0.586998,15.669438 11.47541,25.578731 z m -8.50026,-25.674399 c 0.0083,-0.0626 0.01181,-0.125194 0.01181,-0.188973 0,-5.240469 4.25072,-9.504181 9.485284,-9.528984 5.234563,0.0248 9.485283,4.288515 9.485283,9.528984 0,0.06378 0.0047,0.126376 0.01299,0.188973 0.01654,0.131101 1.511788,12.886805 -9.498275,22.639014 -10.96282,-9.695517 -9.563236,-22.105164 -9.497095,-22.639014 z"
       id="path4148"
       inkscape:export-xdpi="90"
       inkscape:export-ydpi="90"
       inkscape:connector-curvature="0" /></g></svg>