<?xml version="1.0" encoding="UTF-8" standalone="no"?>
<!-- Created with Inkscape (http://www.inkscape.org/) -->

<svg
   xmlns:dc="http://purl.org/dc/elements/1.1/"
   xmlns:cc="http://creativecommons.org/ns#"
   xmlns:rdf="http://www.w3.org/1999/02/22-rdf-syntax-ns#"
   xmlns:svg="http://www.w3.org/2000/svg"
   xmlns="http://www.w3.org/2000/svg"
   xmlns:sodipodi="http://sodipodi.sourceforge.net/DTD/sodipodi-0.dtd"
   xmlns:inkscape="http://www.inkscape.org/namespaces/inkscape"
   id="svg3041"
   version="1.1"
   inkscape:version="0.48.4 r9939"
   width="2299"
   height="927"
   sodipodi:docname="success2.svg"
   inkscape:export-filename="/var/www/html/tugruero/web/img/success2.png"
   inkscape:export-xdpi="90"
   inkscape:export-ydpi="90">
  <metadata
     id="metadata3047">
    <rdf:RDF>
      <cc:Work
         rdf:about="">
        <dc:format>image/svg+xml</dc:format>
        <dc:type
           rdf:resource="http://purl.org/dc/dcmitype/StillImage" />
        <dc:title />
      </cc:Work>
    </rdf:RDF>
  </metadata>
  <defs
     id="defs3045">
    <inkscape:perspective
       sodipodi:type="inkscape:persp3d"
       inkscape:vp_x="63.447916 : 504.6554 : 1"
       inkscape:vp_y="0 : 1000 : 0"
       inkscape:vp_z="2362.4479 : 504.6554 : 1"
       inkscape:persp3d-origin="1212.9479 : 350.1554 : 1"
       id="perspective3183" />
    <clipPath
       clipPathUnits="userSpaceOnUse"
       id="clipPath3303">
      <path
         inkscape:connector-curvature="0"
         d="m 146.091,719.937 104.796,0 0,-104.797 -104.796,0 0,104.797 z"
         id="path3305" />
    </clipPath>
    <clipPath
       clipPathUnits="userSpaceOnUse"
       id="clipPath3251">
      <path
         inkscape:connector-curvature="0"
         d="m 262.905,687.149 275.68,0 0,-40.193 -275.68,0 0,40.193 z"
         id="path3253" />
    </clipPath>
  </defs>
  <sodipodi:namedview
     pagecolor="#ffffff"
     bordercolor="#666666"
     borderopacity="1"
     objecttolerance="10"
     gridtolerance="10"
     guidetolerance="10"
     inkscape:pageopacity="0"
     inkscape:pageshadow="2"
     inkscape:window-width="1680"
     inkscape:window-height="961"
     id="namedview3043"
     showgrid="false"
     inkscape:zoom="0.29157774"
     inkscape:cx="-183.48615"
     inkscape:cy="383.13907"
     inkscape:window-x="0"
     inkscape:window-y="28"
     inkscape:window-maximized="1"
     inkscape:current-layer="g5314" />
  <flowRoot
     xml:space="preserve"
     id="flowRoot3148-5"
     style="font-size:40px;font-style:normal;font-variant:normal;font-weight:normal;font-stretch:normal;text-align:start;line-height:125%;letter-spacing:0px;word-spacing:0px;writing-mode:lr-tb;text-anchor:start;fill:#f89f1f;fill-opacity:1;stroke:none;font-family:Webdings;-inkscape-font-specification:Webdings"
     transform="matrix(1.3246174,0,0,1.0442978,-187.24661,24.288186)"
     inkscape:export-filename="/var/www/html/tugruero/tugruero_disenio/img/caroussel1.png"
     inkscape:export-xdpi="90"
     inkscape:export-ydpi="90"><flowRegion
       id="flowRegion3150-6"><rect
         id="rect3152-3"
         width="922.56702"
         height="109.74775"
         x="233.21396"
         y="436.56476"
         style="font-size:40px;font-style:normal;font-variant:normal;font-weight:normal;font-stretch:normal;text-align:start;line-height:125%;writing-mode:lr-tb;text-anchor:start;fill:#f89f1f;fill-opacity:1;font-family:Webdings;-inkscape-font-specification:Webdings" /></flowRegion><flowPara
       id="flowPara3154-9"
       style="font-size:40px;font-style:normal;font-variant:normal;font-weight:normal;font-stretch:normal;text-align:start;line-height:125%;writing-mode:lr-tb;text-anchor:start;fill:#333333;font-family:Webdings;-inkscape-font-specification:Webdings" /></flowRoot>  <g
     id="g5314"
     transform="matrix(3.8893737,0,0,2.0543665,-2801.3461,-399.20729)">
    <rect
       y="196.28755"
       x="720.25635"
       height="453.49472"
       width="594.15082"
       id="rect5255"
       style="fill:#ffffff;fill-opacity:1" />
    <g
       style="opacity:0.35114507"
       transform="matrix(0.76239232,0,0,-1.25,1038.4984,441.45769)"
       id="g4389">
      <path
         id="path4391"
         style="fill:#f27730;fill-opacity:1;fill-rule:nonzero;stroke:none"
         d="m 0,0 0,34.747 22.557,0 L 37.189,0 0,0 z m 27.543,-36.762 c -0.088,-1.65 -0.625,-3.19 -1.494,-4.476 -1.602,-2.399 -4.33,-3.97 -7.422,-3.97 -4.774,0 -8.672,3.73 -8.92,8.446 -0.009,0.162 -0.019,0.324 -0.019,0.476 0,4.94 4.007,8.934 8.939,8.934 1.408,0 2.732,-0.318 3.927,-0.9 2.966,-1.459 5.002,-4.496 5.002,-8.034 0,-0.152 -0.001,-0.314 -0.013,-0.476 m -78.445,27.755 0,42.393 23.988,-42.393 -23.988,0 z m -2.127,-36.201 c -4.93,0 -8.938,3.997 -8.938,8.922 0,4.94 4.008,8.934 8.938,8.934 4.937,0 8.929,-3.994 8.929,-8.934 0,-4.925 -3.992,-8.922 -8.929,-8.922 m 82.931,88.786 c -0.513,1.168 -1.67,1.905 -2.942,1.905 l -9.151,0 c -0.138,5.061 -4.277,9.129 -9.362,9.129 -5.079,0 -9.226,-4.068 -9.355,-9.129 l -12.348,0 c -1.779,0 -3.224,-1.435 -3.224,-3.221 l 0,-8.94 0.004,-6.461 0,-35.47 c -7.598,13.382 -35.383,62.282 -35.467,62.461 -2.468,4.706 -6.426,8.541 -11.978,8.541 -7.018,0 -12.738,-5.724 -12.738,-12.752 0,-4.291 2.157,-8.092 5.431,-10.389 l -2.633,-6.914 c -0.325,-0.858 -0.304,-1.818 0.08,-2.66 0.378,-0.848 1.075,-1.498 1.937,-1.834 2.297,-0.871 3.461,-3.448 2.594,-5.743 -0.43,-1.119 -1.256,-1.996 -2.35,-2.49 -1.086,-0.489 -2.306,-0.521 -3.407,-0.09 -1.202,0.445 -2.151,1.405 -2.594,2.602 -0.672,1.811 -2.672,2.723 -4.477,2.055 -1.811,-0.672 -2.725,-2.682 -2.049,-4.478 1.147,-3.086 3.568,-5.526 6.647,-6.694 1.316,-0.5 2.689,-0.751 4.06,-0.751 1.592,0 3.181,0.338 4.672,1.001 2.789,1.26 4.911,3.514 6.004,6.373 1.806,4.754 0.209,9.971 -3.561,12.984 l 1.66,4.367 c 0.245,-0.014 0.476,-0.084 0.729,-0.084 1.309,0 2.543,0.26 3.736,0.637 l 0,-46.54 -9.913,0 -6.452,0 -7.191,0 c -1.797,0 -3.237,-1.435 -3.237,-3.227 l 0,-21.305 c 0,-1.775 1.44,-3.223 3.237,-3.223 l 12.854,0 c 0.257,-9.638 8.148,-17.378 17.853,-17.378 9.707,0 17.597,7.74 17.855,17.378 l 35.941,0 C 1.03,-46.4 8.914,-54.14 18.627,-54.14 c 9.704,0 17.596,7.74 17.85,17.378 l 9.843,0 c 1.782,0 3.227,1.448 3.227,3.223 l 0,32.478 c 0,0.465 -0.092,0.904 -0.281,1.331 L 29.902,43.578 z"
         inkscape:connector-curvature="0" />
    </g>
    <g
       style="opacity:0.35114507"
       transform="matrix(0.76239232,0,0,-1.25,998.06781,481.57479)"
       id="g4393">
      <path
         id="path4395"
         style="fill:#f27730;fill-opacity:1;fill-rule:nonzero;stroke:none"
         d="m 0,0 c -2.312,0 -4.186,-1.874 -4.186,-4.185 0,-2.31 1.874,-4.188 4.186,-4.188 2.313,0 4.186,1.878 4.186,4.188 C 4.186,-1.874 2.313,0 0,0"
         inkscape:connector-curvature="0" />
    </g>
    <g
       style="opacity:0.35114507"
       transform="matrix(0.76239232,0,0,-1.25,1052.6979,481.57479)"
       id="g4397">
      <path
         id="path4399"
         style="fill:#f27730;fill-opacity:1;fill-rule:nonzero;stroke:none"
         d="m 0,0 c -2.313,0 -4.187,-1.874 -4.187,-4.185 0,-2.31 1.874,-4.188 4.187,-4.188 2.312,0 4.185,1.878 4.185,4.188 C 4.185,-1.874 2.312,0 0,0"
         inkscape:connector-curvature="0" />
    </g>
    <g
       style="opacity:0.35114507"
       transform="matrix(0.76239232,0,0,-1.25,1037.2252,362.42079)"
       id="g4401">
      <path
         id="path4403"
         style="fill:#f27730;fill-opacity:1;fill-rule:nonzero;stroke:none"
         d="m 0,0 c -1.121,-1.121 -1.12,-2.938 0,-4.061 1.122,-1.126 2.943,-1.126 4.063,-0.001 3.074,3.074 8.073,3.074 11.146,0.001 1.12,-1.126 2.938,-1.126 4.062,-0.001 1.123,1.12 1.12,2.938 0,4.062 C 13.959,5.31 5.313,5.313 0,0"
         inkscape:connector-curvature="0" />
    </g>
    <g
       style="opacity:0.35114507"
       transform="matrix(0.76239232,0,0,-1.25,1056.7898,356.74689)"
       id="g4405">
      <path
         id="path4407"
         style="fill:#f27730;fill-opacity:1;fill-rule:nonzero;stroke:none"
         d="m 0,0 c 1.12,1.122 1.12,2.939 0.002,4.063 -8.838,8.838 -23.219,8.839 -32.055,0.001 -1.121,-1.12 -1.119,-2.942 0,-4.064 1.123,-1.118 2.94,-1.118 4.063,0 6.595,6.599 17.332,6.599 23.927,0 1.124,-1.118 2.942,-1.119 4.063,0"
         inkscape:connector-curvature="0" />
    </g>
    <g
       style="opacity:0.35114507"
       transform="matrix(0.76239232,0,0,-1.25,1029.8068,346.48579)"
       id="g4409">
      <path
         id="path4411"
         style="fill:#f27730;fill-opacity:1;fill-rule:nonzero;stroke:none"
         d="m 0,0 c 10.896,10.897 28.623,10.895 39.52,0 1.121,-1.124 2.937,-1.124 4.059,0 1.124,1.119 1.124,2.941 0.002,4.059 C 30.443,17.194 9.072,17.194 -4.061,4.063 -5.182,2.944 -5.182,1.124 -4.061,0 -2.938,-1.123 -1.121,-1.123 0,0"
         inkscape:connector-curvature="0" />
    </g>
    <g
       style="opacity:0.35114507"
       transform="matrix(0.76239232,0,0,-1.25,1089.4298,488.86129)"
       id="g4413">
      <path
         id="path4415"
         style="fill:#f27730;fill-opacity:1;fill-rule:nonzero;stroke:none"
         d="m 0,0 c 0,-19.272 -15.678,-34.951 -34.95,-34.951 l -102.173,0 c -19.273,0 -34.951,15.679 -34.951,34.951 l 0,102.174 c 0,19.271 15.678,34.95 34.951,34.95 l 102.173,0 C -15.678,137.124 0,121.445 0,102.174 L 0,0 z m -34.95,145.124 -102.173,0 c -23.722,0 -42.951,-19.229 -42.951,-42.95 l 0,-102.174 c 0,-23.722 19.229,-42.951 42.951,-42.951 l 102.173,0 C -11.229,-42.951 8,-23.722 8,0 l 0,102.174 c 0,23.721 -19.229,42.95 -42.95,42.95"
         inkscape:connector-curvature="0" />
    </g>
    <g
       id="g4321"
       transform="matrix(0.32138851,0,0,-0.60846008,1198.5222,640.89128)">
      <path
         inkscape:connector-curvature="0"
         d="M 0,0 C -26.068,0 -47.204,21.137 -47.204,47.207 -47.204,73.275 -26.068,94.41 0,94.41 26.07,94.41 47.206,73.275 47.206,47.207 47.206,21.137 26.07,0 0,0 m 0,99.607 c -28.938,0 -52.397,-23.461 -52.397,-52.4 0,-28.936 23.459,-52.397 52.397,-52.397 28.938,0 52.398,23.461 52.398,52.397 0,28.939 -23.46,52.4 -52.398,52.4"
         style="fill:#f27730;fill-opacity:1;fill-rule:nonzero;stroke:none"
         id="path4323" />
    </g>
    <g
       id="g4325"
       transform="matrix(0.32138851,0,0,-0.60846008,1201.2938,614.51654)">
      <path
         inkscape:connector-curvature="0"
         d="m 0,0 0,17.308 11.235,0 L 18.524,0 0,0 z m 13.72,-18.313 c -0.044,-0.823 -0.312,-1.59 -0.744,-2.229 -0.798,-1.195 -2.159,-1.979 -3.697,-1.979 -2.379,0 -4.321,1.858 -4.444,4.208 -0.004,0.08 -0.01,0.161 -0.01,0.236 0,2.461 1.998,4.451 4.454,4.451 0.701,0 1.361,-0.159 1.955,-0.449 1.477,-0.728 2.492,-2.239 2.492,-4.002 0,-0.075 0,-0.156 -0.006,-0.236 m -39.074,13.826 0,21.115 11.948,-21.115 -11.948,0 z m -1.061,-18.034 c -2.455,0 -4.451,1.991 -4.451,4.444 0,2.461 1.996,4.451 4.451,4.451 2.459,0 4.449,-1.99 4.449,-4.451 0,-2.453 -1.99,-4.444 -4.449,-4.444 M 24.54,0.132 14.896,21.706 c -0.256,0.58 -0.833,0.947 -1.466,0.947 l -4.56,0 C 8.802,25.175 6.741,27.2 4.208,27.2 c -2.531,0 -4.596,-2.025 -4.66,-4.547 l -6.151,0 c -0.886,0 -1.607,-0.714 -1.607,-1.603 l 0,-4.455 0.003,-3.217 0,-17.668 c -3.784,6.668 -17.624,31.023 -17.667,31.112 -1.229,2.344 -3.2,4.253 -5.966,4.253 -3.496,0 -6.345,-2.849 -6.345,-6.349 0,-2.137 1.074,-4.032 2.706,-5.176 l -1.313,-3.444 c -0.161,-0.427 -0.15,-0.906 0.041,-1.325 0.188,-0.424 0.534,-0.747 0.965,-0.913 1.143,-0.434 1.723,-1.719 1.293,-2.861 -0.215,-0.559 -0.627,-0.994 -1.172,-1.238 -0.541,-0.246 -1.15,-0.262 -1.697,-0.048 -0.598,0.22 -1.072,0.7 -1.291,1.298 -0.336,0.9 -1.332,1.355 -2.232,1.02 -0.901,-0.333 -1.356,-1.332 -1.02,-2.228 0.571,-1.539 1.778,-2.753 3.31,-3.333 0.657,-0.25 1.341,-0.375 2.023,-0.375 0.793,0 1.585,0.167 2.327,0.5 1.391,0.625 2.447,1.75 2.99,3.172 0.901,2.369 0.107,4.966 -1.772,6.468 l 0.827,2.175 c 0.12,-0.007 0.236,-0.041 0.363,-0.041 0.652,0 1.268,0.13 1.86,0.315 l 0,-23.179 -4.938,0 -3.213,0 -3.582,0 c -0.896,0 -1.611,-0.716 -1.611,-1.61 l 0,-10.611 c 0,-0.885 0.715,-1.605 1.611,-1.605 l 6.402,0 c 0.127,-4.801 4.059,-8.659 8.893,-8.659 4.836,0 8.766,3.858 8.894,8.659 l 17.903,0 c 0.131,-4.801 4.058,-8.659 8.897,-8.659 4.832,0 8.764,3.858 8.89,8.659 l 4.903,0 c 0.888,0 1.609,0.72 1.609,1.605 l 0,16.178 c 0,0.232 -0.046,0.449 -0.141,0.662"
         style="fill:#f27730;fill-opacity:1;fill-rule:nonzero;stroke:none"
         id="path4327" />
    </g>
    <g
       id="g4329"
       transform="matrix(0.32138851,0,0,-0.60846008,1193.4741,625.51337)">
      <path
         inkscape:connector-curvature="0"
         d="m 0,0 c 0,-1.15 -0.932,-2.086 -2.084,-2.086 -1.151,0 -2.086,0.936 -2.086,2.086 0,1.15 0.935,2.086 2.086,2.086 C -0.932,2.086 0,1.15 0,0"
         style="fill:#f27730;fill-opacity:1;fill-rule:nonzero;stroke:none"
         id="path4331" />
    </g>
    <g
       id="g4333"
       transform="matrix(0.32138851,0,0,-0.60846008,1204.9455,625.51337)">
      <path
         inkscape:connector-curvature="0"
         d="m 0,0 c 0,-1.15 -0.934,-2.086 -2.084,-2.086 -1.152,0 -2.086,0.936 -2.086,2.086 0,1.15 0.934,2.086 2.086,2.086 C -0.934,2.086 0,1.15 0,0"
         style="fill:#f27730;fill-opacity:1;fill-rule:nonzero;stroke:none"
         id="path4335" />
    </g>
    <g
       id="g4337"
       transform="matrix(0.32138851,0,0,-0.60846008,1201.0261,595.35419)">
      <path
         inkscape:connector-curvature="0"
         d="m 0,0 c -0.558,-0.559 -0.555,-1.465 0,-2.021 0.561,-0.561 1.467,-0.561 2.024,0 1.532,1.529 4.023,1.529 5.552,0 0.56,-0.561 1.465,-0.561 2.024,0 0.559,0.555 0.558,1.46 0,2.021 C 6.954,2.645 2.646,2.645 0,0"
         style="fill:#f27730;fill-opacity:1;fill-rule:nonzero;stroke:none"
         id="path4339" />
    </g>
    <g
       id="g4341"
       transform="matrix(0.32138851,0,0,-0.60846008,1200.0036,592.74688)">
      <path
         inkscape:connector-curvature="0"
         d="m 0,0 c -0.56,-0.559 -0.558,-1.465 0,-2.024 0.559,-0.558 1.463,-0.558 2.023,0 3.286,3.289 8.633,3.289 11.919,0 0.56,-0.558 1.465,-0.558 2.024,0 0.557,0.559 0.557,1.463 0.001,2.024 C 11.563,4.402 4.4,4.403 0,0"
         style="fill:#f27730;fill-opacity:1;fill-rule:nonzero;stroke:none"
         id="path4343" />
    </g>
    <g
       id="g4345"
       transform="matrix(0.32138851,0,0,-0.60846008,1198.8187,590.25894)">
      <path
         inkscape:connector-curvature="0"
         d="m 0,0 c -0.56,-0.558 -0.56,-1.463 0,-2.023 0.56,-0.56 1.464,-0.56 2.022,0 5.427,5.427 14.258,5.426 19.686,0 0.559,-0.56 1.463,-0.56 2.021,0 0.561,0.559 0.561,1.463 0.001,2.022 C 17.187,6.54 6.542,6.54 0,0"
         style="fill:#f27730;fill-opacity:1;fill-rule:nonzero;stroke:none"
         id="path4347" />
    </g>
    <g
       id="g4349"
       transform="matrix(0.32138851,0,0,-0.60846008,1219.5618,605.05274)">
      <path
         inkscape:connector-curvature="0"
         d="m 0,0 11.393,0 0,-32.297 5.427,0 0,32.297 11.339,0 0,5.48 L 0,5.48 0,0 z"
         style="fill:#f27730;fill-opacity:1;fill-rule:nonzero;stroke:none"
         id="path4351" />
    </g>
    <g
       id="g4353"
       transform="matrix(0.32138851,0,0,-0.60846008,1236.9529,617.73889)">
      <path
         inkscape:connector-curvature="0"
         d="m 0,0 c 0,-4.139 -4.462,-6.232 -8.383,-6.232 -3.977,0 -8.436,2.039 -8.436,6.177 l 0,26.332 -5.483,0 0,-26.277 c 0,-7.684 7.308,-11.66 13.919,-11.66 6.448,0 13.864,3.976 13.864,11.605 l 0,26.332 L 0,26.277 0,0 z"
         style="fill:#f27730;fill-opacity:1;fill-rule:nonzero;stroke:none"
         id="path4355" />
    </g>
    <g
       id="g4357"
       transform="matrix(0.32138851,0,0,-0.60846008,1244.0561,602.17563)">
      <path
         inkscape:connector-curvature="0"
         d="m 0,0 -14.938,-38.959 3.599,0 L 3.708,0 0,0 z"
         style="fill:#f27730;fill-opacity:1;fill-rule:nonzero;stroke:none"
         id="path4359" />
    </g>
    <g
       id="g4361"
       transform="matrix(0.32138851,0,0,-0.60846008,1250.5002,616.95453)">
      <path
         inkscape:connector-curvature="0"
         d="m 0,0 13.917,0 c -2.256,-5.482 -7.2,-7.631 -11.821,-7.631 -7.363,0 -13.058,5.86 -13.058,13.812 0,7.897 5.695,13.649 13.058,13.649 4.781,0 10.585,-2.205 12.092,-8.276 l 5.802,0 C 18.002,21.547 9.297,25.256 2.096,25.256 c -10.372,0 -18.485,-7.952 -18.485,-19.075 0,-11.071 7.951,-19.025 18.485,-19.025 6.825,0 14.561,4.623 17.141,11.824 l 0,-0.053 c 0.485,1.235 0.753,3.328 1.022,6.501 L 0,5.428 0,0 z"
         style="fill:#ffffff;fill-opacity:1;fill-rule:nonzero;stroke:none"
         id="path4363" />
    </g>
    <g
       id="g4365"
       transform="matrix(0.32138851,0,0,-0.60846008,1266.6813,609.00949)">
      <path
         inkscape:connector-curvature="0"
         d="m 0,0 c 0,5.964 -4.083,11.983 -12.252,11.983 l -13.702,0 0,-37.615 5.374,0 0,32.135 8.328,0 c 4.569,0 6.825,-3.277 6.825,-6.503 0,-3.28 -2.256,-6.556 -6.825,-6.556 l -6.341,0 0,-2.578 13.704,-16.498 7.04,0 L -9.724,-11.5 C -3.276,-10.372 0,-5.319 0,0"
         style="fill:#ffffff;fill-opacity:1;fill-rule:nonzero;stroke:none"
         id="path4367" />
    </g>
    <g
       id="g4369"
       transform="matrix(0.32138851,0,0,-0.60846008,1274.9712,617.73889)">
      <path
         inkscape:connector-curvature="0"
         d="m 0,0 c 0,-4.139 -4.461,-6.232 -8.383,-6.232 -3.978,0 -8.437,2.039 -8.437,6.177 l 0,26.332 -5.481,0 0,-26.277 c 0,-7.684 7.309,-11.66 13.918,-11.66 6.447,0 13.863,3.976 13.863,11.605 l 0,26.332 -5.48,0 L 0,0 z"
         style="fill:#ffffff;fill-opacity:1;fill-rule:nonzero;stroke:none"
         id="path4371" />
    </g>
    <g
       id="g4373"
       transform="matrix(0.32138851,0,0,-0.60846008,1279.9785,614.82966)">
      <path
         inkscape:connector-curvature="0"
         d="m 0,0 17.036,0 0,5.482 -17.036,0 0,10.586 17.41,0 0,5.428 -22.891,0 0,-37.562 22.946,0 0,5.427 L 0,-10.639 0,0 z"
         style="fill:#ffffff;fill-opacity:1;fill-rule:nonzero;stroke:none"
         id="path4375" />
    </g>
    <g
       id="g4377"
       transform="matrix(0.32138851,0,0,-0.60846008,1295.0724,609.00949)">
      <path
         inkscape:connector-curvature="0"
         d="m 0,0 c 0,5.964 -4.085,11.983 -12.252,11.983 l -13.703,0 0,-37.615 5.373,0 0,32.135 8.33,0 c 4.566,0 6.824,-3.277 6.824,-6.503 0,-3.28 -2.258,-6.556 -6.824,-6.556 l -6.342,0 0,-2.578 13.703,-16.498 7.037,0 L -9.727,-11.5 C -3.278,-10.372 0,-5.319 0,0"
         style="fill:#ffffff;fill-opacity:1;fill-rule:nonzero;stroke:none"
         id="path4379" />
    </g>
    <g
       id="g4381"
       transform="matrix(0.32138851,0,0,-0.60846008,1305.1233,619.07939)">
      <path
         inkscape:connector-curvature="0"
         d="m 0,0 c -2.526,-2.525 -6.02,-4.084 -9.727,-4.084 -3.709,0 -7.148,1.559 -9.619,4.084 -2.47,2.473 -4.031,5.91 -4.031,9.728 0,3.814 1.561,7.251 4.031,9.723 2.471,2.526 5.91,4.087 9.619,4.087 3.707,0 7.201,-1.561 9.727,-4.087 C 2.418,16.979 3.976,13.597 3.976,9.728 3.976,5.856 2.418,2.473 0,0 m 3.867,23.322 c -3.493,3.491 -8.275,5.694 -13.594,5.694 -5.265,0 -10.103,-2.203 -13.543,-5.694 -3.384,-3.494 -5.587,-8.276 -5.587,-13.594 0,-5.324 2.203,-10.105 5.587,-13.597 3.44,-3.545 8.278,-5.697 13.543,-5.697 5.319,0 10.101,2.152 13.594,5.697 3.385,3.492 5.589,8.273 5.589,13.597 0,5.318 -2.204,10.1 -5.589,13.594"
         style="fill:#ffffff;fill-opacity:1;fill-rule:nonzero;stroke:none"
         id="path4383" />
    </g>
    <g
       id="g4385"
       transform="matrix(0.32138851,0,0,-0.60846008,1303.9087,613.29068)">
      <path
         inkscape:connector-curvature="0"
         d="m 0,0 c 0,-3.271 -2.65,-5.926 -5.92,-5.926 -3.271,0 -5.924,2.655 -5.924,5.926 0,3.268 2.653,5.918 5.924,5.918 C -2.65,5.918 0,3.268 0,0"
         style="fill:#f27730;fill-opacity:1;fill-rule:nonzero;stroke:none"
         id="path4387" />
    </g>
    <g
       transform="matrix(0.32138851,0,0,-0.60846008,1135.3246,1019.5118)"
       id="g3247">
      <g
         id="g3249" />
      <g
         id="g3255">
        <g
           style="opacity:0.14999402"
           clip-path="url(#clipPath3251)"
           id="g3257">
          <g
             transform="translate(262.9048,681.1846)"
             id="g3259">
            <path
               inkscape:connector-curvature="0"
               d="m 0,0 11.394,0 0,-32.295 5.427,0 0,32.295 11.337,0 0,5.481 L 0,5.481 0,0 z"
               style="fill:#000000;fill-opacity:1;fill-rule:nonzero;stroke:none"
               id="path3261" />
          </g>
          <g
             transform="translate(317.0161,660.3359)"
             id="g3263">
            <path
               inkscape:connector-curvature="0"
               d="m 0,0 c 0,-4.138 -4.461,-6.231 -8.382,-6.231 -3.977,0 -8.436,2.039 -8.436,6.176 l 0,26.331 -5.483,0 0,-26.276 c 0,-7.684 7.308,-11.659 13.919,-11.659 6.447,0 13.863,3.975 13.863,11.604 l 0,26.331 L 0,26.276 0,0 z"
               style="fill:#000000;fill-opacity:1;fill-rule:nonzero;stroke:none"
               id="path3265" />
          </g>
          <g
             transform="translate(339.1187,685.9141)"
             id="g3267">
            <path
               inkscape:connector-curvature="0"
               d="m 0,0 -14.939,-38.958 3.6,0 L 3.707,0 0,0 z"
               style="fill:#000000;fill-opacity:1;fill-rule:nonzero;stroke:none"
               id="path3269" />
          </g>
          <g
             transform="translate(359.1694,661.626)"
             id="g3271">
            <path
               inkscape:connector-curvature="0"
               d="M 0,0 13.918,0 C 11.662,-5.482 6.717,-7.633 2.096,-7.633 c -7.363,0 -13.058,5.86 -13.058,13.813 0,7.898 5.695,13.65 13.058,13.65 4.782,0 10.584,-2.207 12.091,-8.277 l 5.803,0 C 18.001,21.547 9.297,25.254 2.096,25.254 -8.275,25.254 -16.39,17.303 -16.39,6.18 c 0,-11.071 7.952,-19.025 18.486,-19.025 6.824,0 14.562,4.623 17.14,11.824 l 0,-0.053 c 0.485,1.235 0.754,3.328 1.022,6.5 L 0,5.426 0,0 z"
               style="fill:#000000;fill-opacity:1;fill-rule:nonzero;stroke:none"
               id="path3273" />
          </g>
          <g
             transform="translate(409.5161,674.6826)"
             id="g3275">
            <path
               inkscape:connector-curvature="0"
               d="m 0,0 c 0,5.965 -4.083,11.983 -12.251,11.983 l -13.702,0 0,-37.616 5.373,0 0,32.135 8.329,0 c 4.568,0 6.826,-3.276 6.826,-6.502 0,-3.279 -2.258,-6.555 -6.826,-6.555 l -6.342,0 0,-2.58 13.704,-16.498 7.04,0 L -9.724,-11.5 C -3.275,-10.373 0,-5.32 0,0"
               style="fill:#000000;fill-opacity:1;fill-rule:nonzero;stroke:none"
               id="path3277" />
          </g>
          <g
             transform="translate(435.3101,660.3359)"
             id="g3279">
            <path
               inkscape:connector-curvature="0"
               d="m 0,0 c 0,-4.138 -4.459,-6.231 -8.383,-6.231 -3.976,0 -8.436,2.039 -8.436,6.176 l 0,26.331 -5.482,0 0,-26.276 c 0,-7.684 7.309,-11.659 13.918,-11.659 6.448,0 13.863,3.975 13.863,11.604 l 0,26.331 -5.48,0 L 0,0 z"
               style="fill:#000000;fill-opacity:1;fill-rule:nonzero;stroke:none"
               id="path3281" />
          </g>
          <g
             transform="translate(450.8911,665.1172)"
             id="g3283">
            <path
               inkscape:connector-curvature="0"
               d="m 0,0 17.035,0 0,5.482 -17.035,0 0,10.585 17.411,0 0,5.428 -22.892,0 0,-37.562 22.945,0 0,5.428 L 0,-10.639 0,0 z"
               style="fill:#000000;fill-opacity:1;fill-rule:nonzero;stroke:none"
               id="path3285" />
          </g>
          <g
             transform="translate(497.855,674.6826)"
             id="g3287">
            <path
               inkscape:connector-curvature="0"
               d="m 0,0 c 0,5.965 -4.083,11.983 -12.251,11.983 l -13.704,0 0,-37.616 5.374,0 0,32.135 8.33,0 c 4.565,0 6.824,-3.276 6.824,-6.502 0,-3.279 -2.259,-6.555 -6.824,-6.555 l -6.342,0 0,-2.58 13.702,-16.498 7.039,0 L -9.727,-11.5 C -3.276,-10.373 0,-5.32 0,0"
               style="fill:#000000;fill-opacity:1;fill-rule:nonzero;stroke:none"
               id="path3289" />
          </g>
          <g
             transform="translate(529.1284,658.1338)"
             id="g3291">
            <path
               inkscape:connector-curvature="0"
               d="m 0,0 c -2.526,-2.527 -6.019,-4.086 -9.726,-4.086 -3.709,0 -7.147,1.559 -9.62,4.086 -2.47,2.471 -4.03,5.909 -4.03,9.727 0,3.814 1.56,7.251 4.03,9.724 2.473,2.525 5.911,4.086 9.62,4.086 3.707,0 7.2,-1.561 9.726,-4.086 C 2.418,16.978 3.977,13.596 3.977,9.727 3.977,5.855 2.418,2.471 0,0 m 3.869,23.322 c -3.495,3.491 -8.275,5.694 -13.595,5.694 -5.266,0 -10.104,-2.203 -13.542,-5.694 -3.385,-3.494 -5.589,-8.277 -5.589,-13.595 0,-5.323 2.204,-10.104 5.589,-13.596 3.438,-3.547 8.276,-5.697 13.542,-5.697 5.32,0 10.1,2.15 13.595,5.697 3.385,3.492 5.588,8.273 5.588,13.596 0,5.318 -2.203,10.101 -5.588,13.595"
               style="fill:#000000;fill-opacity:1;fill-rule:nonzero;stroke:none"
               id="path3293" />
          </g>
          <g
             transform="translate(525.3511,667.6465)"
             id="g3295">
            <path
               inkscape:connector-curvature="0"
               d="m 0,0 c 0,-3.271 -2.651,-5.923 -5.922,-5.923 -3.271,0 -5.922,2.652 -5.922,5.923 0,3.268 2.651,5.919 5.922,5.919 C -2.651,5.919 0,3.268 0,0"
               style="fill:#000000;fill-opacity:1;fill-rule:nonzero;stroke:none"
               id="path3297" />
          </g>
        </g>
      </g>
    </g>
    <g
       transform="matrix(0.32138851,0,0,-0.60846008,1135.3246,1019.5118)"
       id="g3299">
      <g
         id="g3301" />
      <g
         id="g3307">
        <g
           style="opacity:0.14999402"
           clip-path="url(#clipPath3303)"
           id="g3309">
          <g
             transform="translate(250.8872,667.54)"
             id="g3311">
            <path
               inkscape:connector-curvature="0"
               d="m 0,0 c 0,-28.936 -23.462,-52.4 -52.399,-52.4 -28.94,0 -52.397,23.464 -52.397,52.4 0,28.939 23.457,52.396 52.397,52.396 C -23.462,52.396 0,28.939 0,0"
               style="fill:#000000;fill-opacity:1;fill-rule:nonzero;stroke:none"
               id="path3313" />
          </g>
        </g>
      </g>
    </g>
    <g
       id="g3315"
       transform="matrix(0.32138851,0,0,-0.60846008,1215.1053,610.99322)">
      <path
         inkscape:connector-curvature="0"
         d="m 0,0 c 0,-28.936 -23.46,-52.397 -52.398,-52.397 -28.938,0 -52.398,23.461 -52.398,52.397 0,28.939 23.46,52.4 52.398,52.4 C -23.46,52.4 0,28.939 0,0"
         style="fill:#404040;fill-opacity:1;fill-rule:nonzero;stroke:none"
         id="path3317" />
    </g>
    <g
       id="g3319"
       transform="matrix(0.32138851,0,0,-0.60846008,1213.4366,610.99322)">
      <path
         inkscape:connector-curvature="0"
         d="m 0,0 c 0,-26.07 -21.136,-47.207 -47.206,-47.207 -26.068,0 -47.204,21.137 -47.204,47.207 0,26.068 21.136,47.203 47.204,47.203 C -21.136,47.203 0,26.068 0,0"
         style="fill:#f27730;fill-opacity:1;fill-rule:nonzero;stroke:none"
         id="path3321" />
    </g>
    <g
       id="g3323"
       transform="matrix(0.32138851,0,0,-0.60846008,1192.8881,616.07246)">
      <path
         inkscape:connector-curvature="0"
         d="M 0,0 11.948,0 0,21.115 0,0 z"
         style="fill:#cc5a27;fill-opacity:1;fill-rule:nonzero;stroke:none"
         id="path3325" />
    </g>
    <g
       id="g3327"
       transform="matrix(0.32138851,0,0,-0.60846008,1208.4519,624.48515)">
      <path
         inkscape:connector-curvature="0"
         d="m 0,0 -4.903,0 c -0.126,-4.801 -4.058,-8.658 -8.89,-8.658 -4.839,0 -8.767,3.857 -8.897,8.658 l -17.903,0 c -0.129,-4.801 -4.058,-8.658 -8.894,-8.658 -4.834,0 -8.766,3.857 -8.893,8.658 l -6.402,0 c -0.897,0 -1.612,0.721 -1.612,1.605 l 0,10.612 c 0,0.893 0.715,1.609 1.612,1.609 l 3.582,0 3.213,0 4.938,0 0,23.18 c -0.593,-0.186 -1.208,-0.316 -1.86,-0.316 -0.127,0 -0.243,0.035 -0.363,0.041 L -56.1,34.557 c 1.879,-1.502 2.673,-4.1 1.773,-6.468 -0.543,-1.423 -1.6,-2.548 -2.99,-3.173 -0.743,-0.333 -1.535,-0.5 -2.328,-0.5 -0.681,0 -1.366,0.125 -2.022,0.375 -1.532,0.58 -2.739,1.795 -3.311,3.333 -0.335,0.897 0.12,1.896 1.021,2.229 0.899,0.335 1.895,-0.121 2.231,-1.021 0.22,-0.598 0.694,-1.077 1.291,-1.298 0.547,-0.214 1.157,-0.197 1.698,0.048 0.545,0.244 0.957,0.68 1.172,1.238 0.43,1.143 -0.15,2.427 -1.293,2.862 -0.431,0.166 -0.778,0.489 -0.965,0.913 -0.192,0.419 -0.202,0.897 -0.041,1.325 l 1.312,3.443 c -1.632,1.145 -2.705,3.039 -2.705,5.176 0,1.091 0.278,2.11 0.758,3.008 L -78.542,27.996 c -0.236,-1.904 -0.358,-3.848 -0.358,-5.822 0,-26.07 21.135,-47.207 47.204,-47.207 2.573,0 5.096,0.211 7.556,0.606 L 0.315,0.029 C 0.216,0.011 0.105,0 0,0"
         style="fill:#cc5a27;fill-opacity:1;fill-rule:nonzero;stroke:none"
         id="path3329" />
    </g>
    <g
       id="g3331"
       transform="matrix(0.32138851,0,0,-0.60846008,1201.0368,602.81113)">
      <path
         inkscape:connector-curvature="0"
         d="m 0,0 0,-17.308 18.524,0 L 11.235,0 0,0 z"
         style="fill:#cc5a27;fill-opacity:1;fill-rule:nonzero;stroke:none"
         id="path3333" />
    </g>
    <g
       id="g3335"
       transform="matrix(0.32138851,0,0,-0.60846008,1192.5472,621.63299)">
      <path
         inkscape:connector-curvature="0"
         d="m 0,0 c -2.455,0 -4.451,-1.99 -4.451,-4.451 0,-2.453 1.996,-4.444 4.451,-4.444 2.459,0 4.449,1.991 4.449,4.444 C 4.449,-1.99 2.459,0 0,0"
         style="fill:#cc5a27;fill-opacity:1;fill-rule:nonzero;stroke:none"
         id="path3337" />
    </g>
    <g
       id="g3339"
       transform="matrix(0.32138851,0,0,-0.60846008,1204.6474,621.90631)">
      <path
         inkscape:connector-curvature="0"
         d="m 0,0 c -0.595,0.29 -1.254,0.449 -1.955,0.449 -2.456,0 -4.454,-1.99 -4.454,-4.451 0,-0.075 0.006,-0.156 0.01,-0.236 0.123,-2.35 2.065,-4.207 4.444,-4.207 1.538,0 2.898,0.783 3.696,1.978 0.433,0.639 0.7,1.406 0.744,2.229 0.006,0.08 0.006,0.161 0.006,0.236 C 2.491,-2.239 1.477,-0.728 0,0"
         style="fill:#cc5a27;fill-opacity:1;fill-rule:nonzero;stroke:none"
         id="path3341" />
    </g>
    <g
       id="g3343"
       transform="matrix(0.32138851,0,0,-0.60846008,1201.0368,613.34212)">
      <path
         inkscape:connector-curvature="0"
         d="m 0,0 0,17.308 11.235,0 L 18.524,0 0,0 z m 13.72,-18.313 c -0.044,-0.823 -0.312,-1.59 -0.744,-2.229 -0.798,-1.195 -2.159,-1.979 -3.697,-1.979 -2.379,0 -4.321,1.858 -4.444,4.208 -0.004,0.08 -0.01,0.161 -0.01,0.236 0,2.461 1.998,4.451 4.454,4.451 0.701,0 1.361,-0.159 1.955,-0.449 1.477,-0.728 2.492,-2.239 2.492,-4.002 0,-0.075 0,-0.156 -0.006,-0.236 m -39.074,13.826 0,21.115 11.948,-21.115 -11.948,0 z m -1.061,-18.034 c -2.455,0 -4.451,1.991 -4.451,4.444 0,2.461 1.996,4.451 4.451,4.451 2.459,0 4.449,-1.99 4.449,-4.451 0,-2.453 -1.99,-4.444 -4.449,-4.444 M 24.54,0.132 14.896,21.706 c -0.256,0.58 -0.833,0.947 -1.466,0.947 l -4.56,0 C 8.802,25.175 6.741,27.2 4.208,27.2 c -2.531,0 -4.596,-2.025 -4.66,-4.547 l -6.151,0 c -0.886,0 -1.607,-0.714 -1.607,-1.603 l 0,-4.455 0.003,-3.217 0,-17.668 c -3.784,6.668 -17.624,31.023 -17.667,31.112 -1.229,2.344 -3.2,4.253 -5.966,4.253 -3.496,0 -6.345,-2.849 -6.345,-6.349 0,-2.137 1.074,-4.032 2.706,-5.176 l -1.313,-3.444 c -0.161,-0.427 -0.15,-0.906 0.041,-1.325 0.188,-0.424 0.534,-0.747 0.965,-0.913 1.143,-0.434 1.723,-1.719 1.293,-2.861 -0.215,-0.559 -0.627,-0.994 -1.172,-1.238 -0.541,-0.246 -1.15,-0.262 -1.697,-0.048 -0.598,0.22 -1.072,0.7 -1.291,1.298 -0.336,0.9 -1.332,1.355 -2.232,1.02 -0.901,-0.333 -1.356,-1.332 -1.02,-2.228 0.571,-1.539 1.778,-2.753 3.31,-3.333 0.657,-0.25 1.341,-0.375 2.023,-0.375 0.793,0 1.585,0.167 2.327,0.5 1.391,0.625 2.447,1.75 2.99,3.172 0.901,2.369 0.107,4.966 -1.772,6.468 l 0.827,2.175 c 0.12,-0.007 0.236,-0.041 0.363,-0.041 0.652,0 1.268,0.13 1.86,0.315 l 0,-23.179 -4.938,0 -3.213,0 -3.582,0 c -0.896,0 -1.611,-0.716 -1.611,-1.61 l 0,-10.611 c 0,-0.885 0.715,-1.605 1.611,-1.605 l 6.402,0 c 0.127,-4.801 4.059,-8.659 8.893,-8.659 4.836,0 8.766,3.858 8.894,8.659 l 17.903,0 c 0.131,-4.801 4.058,-8.659 8.897,-8.659 4.832,0 8.764,3.858 8.89,8.659 l 4.903,0 c 0.888,0 1.609,0.72 1.609,1.605 l 0,16.178 c 0,0.232 -0.046,0.449 -0.141,0.662"
         style="fill:#404040;fill-opacity:1;fill-rule:nonzero;stroke:none"
         id="path3345" />
    </g>
    <g
       id="g3347"
       transform="matrix(0.32138851,0,0,-0.60846008,1193.217,624.33894)">
      <path
         inkscape:connector-curvature="0"
         d="m 0,0 c 0,-1.15 -0.932,-2.086 -2.084,-2.086 -1.151,0 -2.086,0.936 -2.086,2.086 0,1.15 0.935,2.086 2.086,2.086 C -0.932,2.086 0,1.15 0,0"
         style="fill:#404040;fill-opacity:1;fill-rule:nonzero;stroke:none"
         id="path3349" />
    </g>
    <g
       id="g3351"
       transform="matrix(0.32138851,0,0,-0.60846008,1204.6885,624.33894)">
      <path
         inkscape:connector-curvature="0"
         d="m 0,0 c 0,-1.15 -0.934,-2.086 -2.084,-2.086 -1.152,0 -2.086,0.936 -2.086,2.086 0,1.15 0.934,2.086 2.086,2.086 C -0.934,2.086 0,1.15 0,0"
         style="fill:#404040;fill-opacity:1;fill-rule:nonzero;stroke:none"
         id="path3353" />
    </g>
    <g
       id="g3355"
       transform="matrix(0.32138851,0,0,-0.60846008,1200.4872,595.24931)">
      <path
         inkscape:connector-curvature="0"
         d="m 0,0 c -0.561,-0.559 -0.56,-1.464 0,-2.021 0.559,-0.561 1.465,-0.561 2.023,-0.002 1.53,1.531 4.022,1.531 5.553,0.002 0.557,-0.561 1.463,-0.561 2.022,-0.002 0.56,0.558 0.557,1.464 0,2.023 C 6.953,2.646 2.645,2.646 0,0"
         style="fill:#cc5a27;fill-opacity:1;fill-rule:nonzero;stroke:none"
         id="path3357" />
    </g>
    <g
       id="g3359"
       transform="matrix(0.32138851,0,0,-0.60846008,1199.4637,592.64139)">
      <path
         inkscape:connector-curvature="0"
         d="m 0,0 c -0.558,-0.56 -0.557,-1.466 0,-2.023 0.56,-0.558 1.464,-0.558 2.024,0 3.286,3.286 8.634,3.286 11.918,0 0.561,-0.558 1.467,-0.561 2.024,0 0.559,0.557 0.559,1.462 0.002,2.023 C 11.563,4.401 4.401,4.401 0,0"
         style="fill:#cc5a27;fill-opacity:1;fill-rule:nonzero;stroke:none"
         id="path3361" />
    </g>
    <g
       id="g3363"
       transform="matrix(0.32138851,0,0,-0.60846008,1198.2792,590.15407)">
      <path
         inkscape:connector-curvature="0"
         d="m 0,0 c -0.56,-0.558 -0.56,-1.463 0,-2.023 0.56,-0.56 1.464,-0.56 2.022,0 5.428,5.427 14.257,5.426 19.685,0 0.56,-0.561 1.464,-0.561 2.024,0 0.559,0.557 0.559,1.463 0,2.023 C 17.187,6.542 6.542,6.542 0,0"
         style="fill:#cc5a27;fill-opacity:1;fill-rule:nonzero;stroke:none"
         id="path3365" />
    </g>
    <g
       id="g3367"
       transform="matrix(0.32138851,0,0,-0.60846008,1200.769,594.17977)">
      <path
         inkscape:connector-curvature="0"
         d="m 0,0 c -0.558,-0.559 -0.555,-1.465 0,-2.021 0.561,-0.561 1.467,-0.561 2.024,0 1.532,1.529 4.023,1.529 5.552,0 0.56,-0.561 1.465,-0.561 2.024,0 0.559,0.555 0.558,1.46 0,2.021 C 6.954,2.645 2.646,2.645 0,0"
         style="fill:#404040;fill-opacity:1;fill-rule:nonzero;stroke:none"
         id="path3369" />
    </g>
    <g
       id="g3371"
       transform="matrix(0.32138851,0,0,-0.60846008,1199.7465,591.57245)">
      <path
         inkscape:connector-curvature="0"
         d="m 0,0 c -0.56,-0.559 -0.558,-1.465 0,-2.024 0.559,-0.558 1.463,-0.558 2.023,0 3.286,3.289 8.633,3.289 11.919,0 0.56,-0.558 1.465,-0.558 2.024,0 0.557,0.559 0.557,1.463 0.001,2.024 C 11.563,4.402 4.4,4.403 0,0"
         style="fill:#404040;fill-opacity:1;fill-rule:nonzero;stroke:none"
         id="path3373" />
    </g>
    <g
       id="g3375"
       transform="matrix(0.32138851,0,0,-0.60846008,1198.5617,589.08452)">
      <path
         inkscape:connector-curvature="0"
         d="m 0,0 c -0.56,-0.558 -0.56,-1.463 0,-2.023 0.56,-0.56 1.464,-0.56 2.022,0 5.427,5.427 14.258,5.426 19.686,0 0.559,-0.56 1.463,-0.56 2.021,0 0.561,0.559 0.561,1.463 0.001,2.022 C 17.187,6.54 6.542,6.54 0,0"
         style="fill:#404040;fill-opacity:1;fill-rule:nonzero;stroke:none"
         id="path3377" />
    </g>
    <g
       id="g3379"
       transform="matrix(0.32138851,0,0,-0.60846008,1219.3047,603.87831)">
      <path
         inkscape:connector-curvature="0"
         d="m 0,0 11.393,0 0,-32.297 5.427,0 0,32.297 11.339,0 0,5.48 L 0,5.48 0,0 z"
         style="fill:#f27730;fill-opacity:1;fill-rule:nonzero;stroke:none"
         id="path3381" />
    </g>
    <g
       id="g3383"
       transform="matrix(0.32138851,0,0,-0.60846008,1236.6958,616.56446)">
      <path
         inkscape:connector-curvature="0"
         d="m 0,0 c 0,-4.139 -4.462,-6.232 -8.383,-6.232 -3.977,0 -8.436,2.039 -8.436,6.177 l 0,26.332 -5.483,0 0,-26.277 c 0,-7.684 7.308,-11.66 13.919,-11.66 6.448,0 13.864,3.976 13.864,11.605 l 0,26.332 L 0,26.277 0,0 z"
         style="fill:#f27730;fill-opacity:1;fill-rule:nonzero;stroke:none"
         id="path3385" />
    </g>
    <g
       id="g3387"
       transform="matrix(0.32138851,0,0,-0.60846008,1243.799,601.00121)">
      <path
         inkscape:connector-curvature="0"
         d="m 0,0 -14.938,-38.959 3.599,0 L 3.708,0 0,0 z"
         style="fill:#f27730;fill-opacity:1;fill-rule:nonzero;stroke:none"
         id="path3389" />
    </g>
    <g
       id="g3391"
       transform="matrix(0.32138851,0,0,-0.60846008,1250.2431,615.7801)">
      <path
         inkscape:connector-curvature="0"
         d="m 0,0 13.917,0 c -2.256,-5.482 -7.2,-7.631 -11.821,-7.631 -7.363,0 -13.058,5.86 -13.058,13.812 0,7.897 5.695,13.649 13.058,13.649 4.781,0 10.585,-2.205 12.092,-8.276 l 5.802,0 C 18.002,21.547 9.297,25.256 2.096,25.256 c -10.372,0 -18.485,-7.952 -18.485,-19.075 0,-11.071 7.951,-19.025 18.485,-19.025 6.825,0 14.561,4.623 17.141,11.824 l 0,-0.053 c 0.485,1.235 0.753,3.328 1.022,6.501 L 0,5.428 0,0 z"
         style="fill:#404040;fill-opacity:1;fill-rule:nonzero;stroke:none"
         id="path3393" />
    </g>
    <g
       id="g3395"
       transform="matrix(0.32138851,0,0,-0.60846008,1266.4242,607.83507)">
      <path
         inkscape:connector-curvature="0"
         d="m 0,0 c 0,5.964 -4.083,11.983 -12.252,11.983 l -13.702,0 0,-37.615 5.374,0 0,32.135 8.328,0 c 4.569,0 6.825,-3.277 6.825,-6.503 0,-3.28 -2.256,-6.556 -6.825,-6.556 l -6.341,0 0,-2.578 13.704,-16.498 7.04,0 L -9.724,-11.5 C -3.276,-10.372 0,-5.319 0,0"
         style="fill:#404040;fill-opacity:1;fill-rule:nonzero;stroke:none"
         id="path3397" />
    </g>
    <g
       id="g3399"
       transform="matrix(0.32138851,0,0,-0.60846008,1274.7141,616.56446)">
      <path
         inkscape:connector-curvature="0"
         d="m 0,0 c 0,-4.139 -4.461,-6.232 -8.383,-6.232 -3.978,0 -8.437,2.039 -8.437,6.177 l 0,26.332 -5.481,0 0,-26.277 c 0,-7.684 7.309,-11.66 13.918,-11.66 6.447,0 13.863,3.976 13.863,11.605 l 0,26.332 -5.48,0 L 0,0 z"
         style="fill:#404040;fill-opacity:1;fill-rule:nonzero;stroke:none"
         id="path3401" />
    </g>
    <g
       id="g3403"
       transform="matrix(0.32138851,0,0,-0.60846008,1279.7214,613.65523)">
      <path
         inkscape:connector-curvature="0"
         d="m 0,0 17.036,0 0,5.482 -17.036,0 0,10.586 17.41,0 0,5.428 -22.891,0 0,-37.562 22.946,0 0,5.427 L 0,-10.639 0,0 z"
         style="fill:#404040;fill-opacity:1;fill-rule:nonzero;stroke:none"
         id="path3405" />
    </g>
    <g
       id="g3407"
       transform="matrix(0.32138851,0,0,-0.60846008,1294.8153,607.83507)">
      <path
         inkscape:connector-curvature="0"
         d="m 0,0 c 0,5.964 -4.085,11.983 -12.252,11.983 l -13.703,0 0,-37.615 5.373,0 0,32.135 8.33,0 c 4.566,0 6.824,-3.277 6.824,-6.503 0,-3.28 -2.258,-6.556 -6.824,-6.556 l -6.342,0 0,-2.578 13.703,-16.498 7.037,0 L -9.727,-11.5 C -3.278,-10.372 0,-5.319 0,0"
         style="fill:#404040;fill-opacity:1;fill-rule:nonzero;stroke:none"
         id="path3409" />
    </g>
    <g
       id="g3411"
       transform="matrix(0.32138851,0,0,-0.60846008,1304.8663,617.90496)">
      <path
         inkscape:connector-curvature="0"
         d="m 0,0 c -2.526,-2.525 -6.02,-4.084 -9.727,-4.084 -3.709,0 -7.148,1.559 -9.619,4.084 -2.47,2.473 -4.031,5.91 -4.031,9.728 0,3.814 1.561,7.251 4.031,9.723 2.471,2.526 5.91,4.087 9.619,4.087 3.707,0 7.201,-1.561 9.727,-4.087 C 2.418,16.979 3.976,13.597 3.976,9.728 3.976,5.856 2.418,2.473 0,0 m 3.867,23.322 c -3.493,3.491 -8.275,5.694 -13.594,5.694 -5.265,0 -10.103,-2.203 -13.543,-5.694 -3.384,-3.494 -5.587,-8.276 -5.587,-13.594 0,-5.324 2.203,-10.105 5.587,-13.597 3.44,-3.545 8.278,-5.697 13.543,-5.697 5.319,0 10.101,2.152 13.594,5.697 3.385,3.492 5.589,8.273 5.589,13.597 0,5.318 -2.204,10.1 -5.589,13.594"
         style="fill:#404040;fill-opacity:1;fill-rule:nonzero;stroke:none"
         id="path3413" />
    </g>
    <g
       id="g3415"
       transform="matrix(0.32138851,0,0,-0.60846008,1303.6516,612.11625)">
      <path
         inkscape:connector-curvature="0"
         d="m 0,0 c 0,-3.271 -2.65,-5.926 -5.92,-5.926 -3.271,0 -5.924,2.655 -5.924,5.926 0,3.268 2.653,5.918 5.924,5.918 C -2.65,5.918 0,3.268 0,0"
         style="fill:#f27730;fill-opacity:1;fill-rule:nonzero;stroke:none"
         id="path3417" />
    </g>
  </g>
</svg>
